# This file uses centimeters as units for non-parametric coordinates.

mtllib thisisit.mtl
g default
v 0.884622 0.240261 -0.514966
v 0.639522 0.240261 -1.040052
v 0.936212 0.240261 -0.396495
v 0.579286 0.240261 -0.215078
v 0.042118 0.240261 -0.430652
v 0.690744 0.240261 -0.149702
v 1.602738 0.240261 -0.201695
v 2.131029 0.240261 -0.445724
v 1.484267 0.240261 -0.150106
v 1.302849 0.240261 -0.507028
v 1.521630 0.240261 -1.043129
v 1.237476 0.240261 -0.395573
v 1.271952 0.240261 0.498910
v 1.514915 0.240261 1.023996
v 1.220362 0.240261 0.380439
v 1.577286 0.240261 0.199022
v 2.112319 0.240261 0.414596
v 1.465830 0.240261 0.133646
v 0.571351 0.240261 0.185638
v 0.045197 0.240261 0.429668
v 0.689819 0.240261 0.134049
v 0.871238 0.240261 0.490972
v 0.654596 0.240261 1.027073
v 0.936615 0.240261 0.379516
v 0.593798 0.240261 -0.373146
v 0.660386 0.240261 -0.483630
v 0.741245 0.240261 -0.323656
v 0.648918 0.240261 -0.264096
v 1.028095 0.240261 -0.659685
v 1.137479 0.240261 -0.664721
v 1.026545 0.240261 -0.479829
v 1.135877 0.240261 -0.482022
v 0.429269 0.240261 0.050974
v 0.423685 0.240261 -0.058421
v 0.607231 0.240261 -0.057019
v 0.609583 0.240261 0.052360
v 1.460917 0.240261 -0.492517
v 1.571402 0.240261 -0.425929
v 1.411761 0.240261 -0.345238
v 1.351536 0.240261 -0.437231
v 1.738677 0.240261 -0.066980
v 1.739455 0.240261 0.042323
v 1.557722 0.240261 -0.070045
v 1.556486 0.240261 0.039218
v 1.562775 0.240261 0.357088
v 1.496188 0.240261 0.467574
v 1.415426 0.240261 0.307791
v 1.507558 0.240261 0.247849
v 1.137288 0.240261 0.640992
v 1.027895 0.240261 0.646573
v 1.138650 0.240261 0.460698
v 1.029320 0.240261 0.463050
v 0.713173 0.240261 0.476460
v 0.602685 0.240261 0.409873
v 0.762485 0.240261 0.329103
v 0.822396 0.240261 0.421254
v 0.660434 0.086800 -1.536540
v 0.829607 0.086800 -1.682196
v 0.538295 0.086799 -1.303613
v 1.087799 0.086800 -1.522325
v 0.933098 0.086800 -1.308078
v 0.876562 0.086800 -1.035595
v -0.284045 0.086800 -0.776680
v -0.269020 0.086800 -0.999280
v -0.201894 0.086800 -0.534009
v 0.003658 0.086800 -1.081429
v 0.057695 0.086800 -0.814486
v 0.199845 0.086800 -0.611846
v 0.076650 0.086800 -1.365426
v 0.291363 0.086800 -1.386176
v 0.262825 0.086799 -1.031767
v 0.487990 0.086799 -0.883624
v -0.573963 0.086800 -0.251271
v -0.433520 0.086800 -0.420399
v -0.437079 0.086800 -0.007717
v -0.199720 0.086800 -0.152473
v 0.075232 0.086800 -0.190918
v 2.627517 0.086800 -0.424813
v 2.773173 0.086800 -0.255640
v 2.394591 0.086799 -0.546953
v 2.602409 0.086800 -0.008339
v 2.399055 0.086800 -0.152149
v 2.126573 0.086800 -0.208685
v 1.867657 0.086800 -1.369292
v 2.090256 0.086800 -1.354266
v 1.624987 0.086800 -1.287142
v 2.172407 0.086800 -1.081589
v 1.905463 0.086800 -1.027552
v 1.702824 0.086800 -0.885403
v 2.456402 0.086800 -1.008597
v 2.477153 0.086800 -0.793884
v 2.122744 0.086799 -0.822422
v 1.974603 0.086799 -0.597257
v 1.342248 0.086800 -1.659210
v 1.511376 0.086800 -1.518767
v 1.243451 0.086800 -1.284968
v 1.281896 0.086800 -1.010015
v 1.494004 0.086800 1.520484
v 1.324832 0.086800 1.666140
v 1.616144 0.086799 1.287557
v 1.077531 0.086800 1.506269
v 1.221340 0.086800 1.292022
v 1.277875 0.086800 1.019539
v 2.438483 0.086800 0.760624
v 2.423457 0.086800 0.983224
v 2.356332 0.086800 0.517953
v 2.150780 0.086800 1.065373
v 2.096743 0.086800 0.798430
v 1.954593 0.086800 0.595790
v 2.077787 0.086800 1.349370
v 1.863075 0.086800 1.370120
v 1.891612 0.086799 1.015712
v 1.666448 0.086799 0.867568
v 2.728401 0.086800 0.235215
v 2.587957 0.086800 0.404343
v 2.354158 0.086800 0.136417
v 2.079205 0.086800 0.174862
v -0.451292 0.086800 0.408757
v -0.596950 0.086800 0.239584
v -0.218367 0.086799 0.530897
v -0.222831 0.086800 0.136093
v 0.049651 0.086800 0.192629
v 0.308566 0.086800 1.353236
v 0.085967 0.086800 1.338210
v 0.551239 0.086800 1.271086
v 0.003820 0.086800 1.065533
v 0.270761 0.086800 1.011495
v 0.473402 0.086800 0.869346
v -0.280180 0.086800 0.992541
v -0.300929 0.086800 0.777828
v 0.053478 0.086799 0.806366
v 0.201623 0.086799 0.581201
v 0.833976 0.086800 1.643153
v 0.664848 0.086800 1.502711
v 0.932773 0.086800 1.268911
v 0.894328 0.086800 0.993959
v 0.519350 0.086800 -0.503956
v 0.579155 0.086800 -0.560818
v 0.866534 0.086799 -0.168042
v 0.967123 0.086799 -0.276187
v 0.796725 0.086799 -0.080510
v 0.775637 0.086799 -0.049664
v 1.042001 0.086800 -0.780393
v 1.126754 0.086800 -0.779650
v 1.129728 0.086799 -0.309425
v 1.140643 0.086799 -0.309610
v 1.020022 0.086799 -0.292024
v 0.303158 0.086800 0.036602
v 0.303612 0.086800 -0.046924
v 0.795120 0.086799 0.060204
v 0.809060 0.086799 0.102067
v 1.592426 0.086800 -0.566822
v 1.648784 0.086800 -0.506807
v 1.258945 0.086799 -0.218784
v 1.367164 0.086799 -0.118124
v 1.171673 0.086799 -0.288394
v 1.862693 0.086800 -0.051607
v 1.860906 0.086800 0.031949
v 1.378857 0.086799 0.033297
v 1.378801 0.086799 0.033610
v 1.376444 0.086799 -0.076083
v 1.636943 0.086800 0.487957
v 1.576942 0.086800 0.544640
v 1.287945 0.086799 0.151942
v 1.187315 0.086799 0.260131
v 1.357639 0.086799 0.064563
v 1.122781 0.086800 0.767021
v 1.039183 0.086800 0.766353
v 1.145351 0.086799 0.274104
v 0.582110 0.086800 0.550768
v 0.525476 0.086800 0.490827
v 0.917245 0.086799 0.202695
v 1.004638 0.086799 0.272398
v 1.035590 0.086799 0.293553
v 0.660386 0.086800 -0.483630
v 0.593798 0.086800 -0.373146
v 0.648918 0.086800 -0.264096
v 0.741245 0.086800 -0.323656
v 1.137479 0.086800 -0.664721
v 1.028095 0.086800 -0.659685
v 1.026545 0.086800 -0.479829
v 1.135877 0.086800 -0.482022
v 0.423685 0.086800 -0.058421
v 0.429269 0.086800 0.050974
v 0.609583 0.086800 0.052360
v 0.607231 0.086800 -0.057019
v 1.571402 0.086800 -0.425929
v 1.460917 0.086800 -0.492517
v 1.351536 0.086800 -0.437231
v 1.411761 0.086800 -0.345238
v 1.739455 0.086800 0.042323
v 1.738677 0.086800 -0.066980
v 1.557722 0.086800 -0.070045
v 1.556486 0.086800 0.039218
v 1.496188 0.086800 0.467574
v 1.562775 0.086800 0.357088
v 1.507558 0.086800 0.247849
v 1.415426 0.086800 0.307791
v 1.027895 0.086800 0.646573
v 1.137288 0.086800 0.640992
v 1.138650 0.086800 0.460698
v 1.029320 0.086800 0.463050
v 0.602685 0.086800 0.409873
v 0.713173 0.086800 0.476460
v 0.822396 0.086800 0.421254
v 0.762485 0.086800 0.329103
v 0.753674 0.240261 -1.462449
v 0.660434 0.197999 -1.536540
v 0.911509 0.240261 -1.598342
v 0.829607 0.197999 -1.682196
v 1.001088 0.194722 -1.872128
v 1.082248 0.240261 -1.787453
v 1.166499 0.194722 -1.869053
v 0.595650 0.240261 -1.161088
v 0.538295 0.197999 -1.303613
v 1.092437 0.240261 -1.728580
v 1.087799 0.197999 -1.522325
v 0.823629 0.240261 -1.356306
v 0.933098 0.197999 -1.308078
v 0.752253 0.240261 -1.012295
v 0.876562 0.197999 -1.035595
v -0.165756 0.240261 -0.792086
v -0.284045 0.197999 -0.776680
v -0.151711 0.240261 -1.000160
v -0.269020 0.197999 -0.999280
v -0.290845 0.194531 -1.263504
v -0.173524 0.240262 -1.264243
v -0.174941 0.194531 -1.381558
v -0.058148 0.240261 -0.474217
v -0.201894 0.197999 -0.534009
v -0.145600 0.240261 -1.229141
v 0.003658 0.197999 -1.081429
v -0.052113 0.240261 -0.767317
v 0.057695 0.197999 -0.814486
v 0.126094 0.240261 -0.513277
v 0.199845 0.197999 -0.611846
v 0.078546 0.240261 -1.248080
v 0.076650 0.197999 -1.365426
v 0.277857 0.240261 -1.267342
v 0.291363 0.197999 -1.386176
v 0.307689 0.240261 -1.142282
v 0.262825 0.197999 -1.031767
v 0.588718 0.240261 -0.957384
v 0.487990 0.197998 -0.883624
v -0.491533 0.240261 -0.167423
v -0.573963 0.197999 -0.251271
v -0.783948 0.198560 0.077936
v -0.694120 0.240261 -0.002044
v -0.780939 0.198560 -0.085281
v -0.359520 0.240261 -0.326397
v -0.433520 0.197999 -0.420399
v -0.654016 0.240261 -0.012437
v -0.437079 0.197999 -0.007717
v -0.239931 0.240261 -0.264972
v -0.199720 0.197999 -0.152473
v 0.101420 0.240261 -0.312701
v 0.075232 0.197999 -0.190918
v 2.553426 0.240261 -0.331573
v 2.627517 0.197999 -0.424813
v 2.689402 0.240261 -0.173644
v 2.773173 0.197999 -0.255640
v 2.951038 0.198551 -0.095744
v 2.859872 0.240261 -0.017392
v 2.945057 0.198551 0.067425
v 2.252065 0.240261 -0.489598
v 2.394591 0.197999 -0.546953
v 2.818406 0.240261 0.001131
v 2.602409 0.197999 -0.008339
v 2.446694 0.240261 -0.261740
v 2.399055 0.197999 -0.152149
v 2.105813 0.240261 -0.332468
v 2.126573 0.197999 -0.208685
v 1.883063 0.240261 -1.251002
v 1.867657 0.197999 -1.369292
v 2.091137 0.240261 -1.236957
v 2.090256 0.197999 -1.354266
v 2.354482 0.194531 -1.376092
v 2.355221 0.240262 -1.258771
v 2.472535 0.194531 -1.260188
v 1.565196 0.240261 -1.143396
v 1.624987 0.197999 -1.287142
v 2.320121 0.240261 -1.230847
v 2.172407 0.197999 -1.081589
v 1.858294 0.240261 -1.137359
v 1.905463 0.197999 -1.027552
v 1.604675 0.240261 -0.959449
v 1.702824 0.197999 -0.885403
v 2.339057 0.240261 -1.006702
v 2.456402 0.197999 -1.008597
v 2.358320 0.240261 -0.807389
v 2.477153 0.197999 -0.793884
v 2.233259 0.240261 -0.777558
v 2.122744 0.197999 -0.822422
v 2.048199 0.240261 -0.496281
v 1.974603 0.197998 -0.597257
v 1.259365 0.240261 -1.575977
v 1.342248 0.197999 -1.659210
v 1.417375 0.240261 -1.444766
v 1.511376 0.197999 -1.518767
v 1.355672 0.240261 -1.327166
v 1.243451 0.197999 -1.284968
v 1.403957 0.240261 -0.981836
v 1.281896 0.197999 -1.010015
v 1.400764 0.240261 1.446393
v 1.494004 0.197999 1.520484
v 1.241970 0.240261 1.583114
v 1.324832 0.197999 1.666140
v 1.163184 0.198560 1.853139
v 1.083203 0.240261 1.763310
v 0.999967 0.198560 1.850130
v 1.558790 0.240261 1.145032
v 1.616144 0.197999 1.287557
v 1.072811 0.240261 1.723204
v 1.077531 0.197999 1.506269
v 1.331232 0.240261 1.338208
v 1.221340 0.197999 1.292022
v 1.401847 0.240261 0.997862
v 1.277875 0.197999 1.019539
v 2.320193 0.240261 0.776030
v 2.438483 0.197999 0.760624
v 2.306148 0.240261 0.984105
v 2.423457 0.197999 0.983224
v 2.445282 0.194531 1.247448
v 2.327961 0.240262 1.248187
v 2.329379 0.194531 1.365502
v 2.212586 0.240261 0.458161
v 2.356332 0.197999 0.517953
v 2.300037 0.240261 1.213085
v 2.150780 0.197999 1.065373
v 2.206550 0.240261 0.751261
v 2.096743 0.197999 0.798430
v 2.028404 0.240261 0.497307
v 1.954593 0.197999 0.595790
v 2.075891 0.240261 1.232024
v 2.077787 0.197999 1.349370
v 1.876580 0.240261 1.251286
v 1.863075 0.197999 1.370120
v 1.846748 0.240261 1.126227
v 1.891612 0.197999 1.015712
v 1.565449 0.240261 0.941150
v 1.666448 0.197998 0.867568
v 2.646612 0.240261 0.150594
v 2.728401 0.197999 0.235215
v 2.513957 0.240261 0.310341
v 2.587957 0.197999 0.404343
v 2.393179 0.240261 0.249082
v 2.354158 0.197999 0.136417
v 2.051891 0.240261 0.296803
v 2.079205 0.197999 0.174862
v -0.377202 0.240261 0.315517
v -0.451292 0.197999 0.408757
v -0.513924 0.240261 0.156722
v -0.596950 0.197999 0.239584
v -0.075841 0.240261 0.473542
v -0.218367 0.197999 0.530897
v -0.269017 0.240261 0.245985
v -0.222831 0.197999 0.136093
v 0.071389 0.240261 0.316614
v 0.049651 0.197999 0.192629
v 0.293160 0.240261 1.234946
v 0.308566 0.197999 1.353236
v 0.085087 0.240261 1.220901
v 0.085967 0.197999 1.338210
v -0.178255 0.194531 1.360036
v -0.178995 0.240262 1.242715
v -0.296310 0.194531 1.244133
v 0.611030 0.240261 1.127340
v 0.551239 0.197999 1.271086
v -0.143890 0.240261 1.214791
v 0.003820 0.197999 1.065533
v 0.317930 0.240261 1.121303
v 0.270761 0.197999 1.011495
v 0.571801 0.240261 0.943217
v 0.473402 0.197999 0.869346
v -0.162835 0.240261 0.990645
v -0.280180 0.197999 0.992541
v -0.182096 0.240261 0.791334
v -0.300929 0.197999 0.777828
v -0.057037 0.240261 0.761502
v 0.053478 0.197999 0.806366
v 0.127978 0.240261 0.480300
v 0.201623 0.197998 0.581201
v 0.917825 0.240261 1.560723
v 0.833976 0.197999 1.643153
v 0.758850 0.240261 1.428710
v 0.664848 0.197999 1.502711
v 0.820274 0.240261 1.309123
v 0.932773 0.197999 1.268911
v 0.772506 0.240261 0.967493
v 0.894328 0.197999 0.993959
v 0.548801 0.240261 -0.370538
v 0.519350 0.197999 -0.503956
v 0.710920 0.240261 -0.524679
v 0.579155 0.197999 -0.560818
v 0.903116 0.240261 -0.379137
v 0.967123 0.197999 -0.276187
v 0.777847 0.240261 -0.244459
v 0.866534 0.197999 -0.168042
v 0.652112 0.240261 -0.076261
v 0.775637 0.197999 -0.049664
v 0.702582 0.240261 -0.150086
v 0.796725 0.197999 -0.080510
v 0.978062 0.240261 -0.663965
v 1.042001 0.197999 -0.780393
v 1.188641 0.240261 -0.662119
v 1.126754 0.197999 -0.779650
v 1.175915 0.240261 -0.427206
v 1.140643 0.197999 -0.309610
v 1.119527 0.240261 -0.426253
v 1.129728 0.197999 -0.309425
v 0.993966 0.240261 -0.406337
v 1.020022 0.197999 -0.292024
v 0.419787 0.240261 0.102185
v 0.303158 0.197999 0.036602
v 0.420946 0.240261 -0.111238
v 0.303612 0.197999 -0.046924
v 0.707508 0.240261 0.167375
v 0.809060 0.197999 0.102067
v 0.681427 0.240261 0.089050
v 0.795120 0.197999 0.060204
v 1.458734 0.240261 -0.538299
v 1.592426 0.197999 -0.566822
v 1.611924 0.240261 -0.375167
v 1.648784 0.197999 -0.506807
v 1.473538 0.240261 -0.178946
v 1.367164 0.197999 -0.118124
v 1.335366 0.240261 -0.307467
v 1.258945 0.197999 -0.218784
v 1.241253 0.240261 -0.382534
v 1.171673 0.197999 -0.288394
v 1.747122 0.240261 -0.118953
v 1.862693 0.197999 -0.051607
v 1.742563 0.240261 0.094296
v 1.860906 0.197999 0.031949
v 1.489516 0.240261 0.078945
v 1.378801 0.197999 0.033610
v 1.496070 0.240261 0.042431
v 1.378857 0.197999 0.033297
v 1.493146 0.240261 -0.090114
v 1.376444 0.197999 -0.076083
v 1.607826 0.240261 0.354532
v 1.636943 0.197999 0.487957
v 1.445389 0.240261 0.507988
v 1.576942 0.197999 0.544640
v 1.252623 0.240261 0.361682
v 1.187315 0.197999 0.260131
v 1.376629 0.240261 0.228361
v 1.287945 0.197999 0.151942
v 1.451779 0.240261 0.134142
v 1.357639 0.197999 0.064563
v 1.188538 0.240261 0.650560
v 1.122781 0.197999 0.767021
v 0.975297 0.240261 0.648855
v 1.039183 0.197999 0.766353
v 1.174189 0.240261 0.387800
v 1.145351 0.197999 0.274104
v 0.715623 0.240261 0.521738
v 0.582110 0.197999 0.550768
v 0.562027 0.240261 0.359174
v 0.525476 0.197999 0.490827
v 0.840826 0.240261 0.291380
v 0.917245 0.197999 0.202695
v 1.008992 0.240261 0.417072
v 1.035590 0.197999 0.293553
v 0.935066 0.240261 0.366544
v 1.004638 0.197999 0.272398
v 1.001088 0.086800 -1.872128
v 1.166499 0.086800 -1.869053
v -0.290845 0.086800 -1.263504
v -0.174941 0.086800 -1.381558
v -0.782650 0.086800 0.079058
v -0.779601 0.086800 -0.086354
v 2.949784 0.086800 -0.096871
v 2.943723 0.086800 0.068457
v 2.354482 0.086800 -1.376092
v 2.472535 0.086800 -1.260188
v 1.164305 0.086800 1.851841
v 0.998894 0.086800 1.848792
v 2.445282 0.086800 1.247448
v 2.329379 0.086800 1.365502
v -0.178255 0.086800 1.360036
v -0.296310 0.086800 1.244133
vt 0.673125 0.705429
vt 0.642784 0.698350
vt 0.652305 0.676170
vt 0.680767 0.687652
vt 0.694156 0.699860
vt 0.694589 0.726411
vt 0.627729 0.661009
vt 0.604830 0.637811
vt 0.631894 0.637424
vt 0.644152 0.651094
vt 0.638123 0.668008
vt 0.629778 0.684492
vt 0.780208 0.658433
vt 0.772943 0.688780
vt 0.750809 0.679049
vt 0.762477 0.650657
vt 0.773268 0.638827
vt 0.799925 0.638309
vt 0.735573 0.704040
vt 0.710992 0.726124
vt 0.710506 0.699902
vt 0.725707 0.687488
vt 0.742543 0.693770
vt 0.759074 0.701470
vt 0.730643 0.554337
vt 0.760892 0.561550
vt 0.751503 0.583696
vt 0.723077 0.572103
vt 0.710899 0.560309
vt 0.710477 0.533790
vt 0.776071 0.598848
vt 0.799971 0.621971
vt 0.772870 0.622589
vt 0.759556 0.608786
vt 0.765653 0.591906
vt 0.773994 0.575342
vt 0.626235 0.601304
vt 0.633602 0.571046
vt 0.655702 0.580863
vt 0.644019 0.608986
vt 0.632173 0.621080
vt 0.605630 0.621398
vt 0.670907 0.555875
vt 0.694071 0.532992
vt 0.694540 0.560018
vt 0.680845 0.572279
vt 0.663946 0.566120
vt 0.647433 0.558406
vt 0.654348 0.844977
vt 0.630650 0.801090
vt 0.677813 0.864424
vt 0.702666 0.891292
vt 0.714751 0.905002
vt 0.729852 0.862313
vt 0.583943 0.816195
vt 0.704375 0.882809
vt 0.743722 0.824980
vt 0.664128 0.829179
vt 0.653673 0.778646
vt 0.687117 0.727099
vt 0.517941 0.746711
vt 0.532801 0.699594
vt 0.519550 0.777008
vt 0.518719 0.815142
vt 0.517777 0.833418
vt 0.555001 0.813428
vt 0.488485 0.677241
vt 0.522618 0.809947
vt 0.588767 0.798034
vt 0.534449 0.742387
vt 0.560375 0.704803
vt 0.623051 0.684021
vt 0.629936 0.770676
vt 0.647653 0.705984
vt 0.467094 0.655937
vt 0.441090 0.628667
vt 0.466983 0.605798
vt 0.446749 0.630616
vt 0.506369 0.668794
vt 0.502731 0.592253
vt 0.556840 0.675755
vt 0.604435 0.645706
vt 0.919985 0.677233
vt 0.876142 0.700878
vt 0.939767 0.653848
vt 0.964086 0.631501
vt 0.978810 0.620102
vt 0.937630 0.602594
vt 0.891155 0.747754
vt 0.958475 0.628082
vt 0.897054 0.590748
vt 0.904286 0.667373
vt 0.854208 0.677711
vt 0.801223 0.646057
vt 0.821336 0.813390
vt 0.774471 0.798342
vt 0.851624 0.812017
vt 0.889728 0.813144
vt 0.907979 0.814254
vt 0.888233 0.776754
vt 0.752267 0.842496
vt 0.884575 0.809203
vt 0.873019 0.742842
vt 0.817134 0.796859
vt 0.779788 0.770857
vt 0.758566 0.708421
vt 0.845711 0.701492
vt 0.780599 0.683910
vt 0.750647 0.774067
vt 0.718501 0.726589
vt 0.748674 0.414908
vt 0.772471 0.458766
vt 0.725146 0.395260
vt 0.702057 0.369519
vt 0.690513 0.354939
vt 0.675061 0.395696
vt 0.819007 0.443459
vt 0.700166 0.375192
vt 0.662558 0.435010
vt 0.738993 0.430939
vt 0.749512 0.480942
vt 0.718091 0.532339
vt 0.885212 0.512779
vt 0.870596 0.560043
vt 0.883527 0.482429
vt 0.884251 0.444219
vt 0.885092 0.425934
vt 0.847968 0.446094
vt 0.915103 0.582253
vt 0.880375 0.449429
vt 0.814300 0.461643
vt 0.868733 0.517184
vt 0.843021 0.554896
vt 0.780731 0.575805
vt 0.773291 0.489201
vt 0.755995 0.553963
vt 0.846507 0.583936
vt 0.800404 0.614235
vt 0.486786 0.582428
vt 0.530671 0.558975
vt 0.515552 0.512277
vt 0.552743 0.582078
vt 0.604199 0.613809
vt 0.585086 0.446640
vt 0.632008 0.461550
vt 0.554814 0.448065
vt 0.516721 0.447007
vt 0.498464 0.445971
vt 0.518362 0.483327
vt 0.653982 0.417212
vt 0.521891 0.450933
vt 0.533697 0.517139
vt 0.589371 0.463144
vt 0.626837 0.489063
vt 0.647945 0.551545
vt 0.561071 0.558337
vt 0.625924 0.575903
vt 0.655884 0.485453
vt 0.686211 0.532670
vt 0.675933 0.684970
vt 0.689323 0.689132
vt 0.657297 0.664882
vt 0.645901 0.651151
vt 0.638496 0.640181
vt 0.642719 0.615602
vt 0.716493 0.691974
vt 0.726288 0.685561
vt 0.708021 0.691875
vt 0.646803 0.604156
vt 0.666896 0.585679
vt 0.760751 0.654854
vt 0.763789 0.641917
vt 0.739978 0.674093
vt 0.762978 0.616856
vt 0.757474 0.608729
vt 0.763951 0.622277
vt 0.727798 0.575021
vt 0.716256 0.570987
vt 0.746192 0.595033
vt 0.691603 0.566782
vt 0.680609 0.574199
vt 0.637252 0.782865
vt 0.547933 0.692955
vt 0.857969 0.694227
vt 0.767835 0.783241
vt 0.765966 0.476982
vt 0.855499 0.566732
vt 0.548835 0.565615
vt 0.638678 0.476612
vt 0.639197 0.405872
vt 0.662452 0.382886
vt 0.497110 0.513811
vt 0.500116 0.482711
vt 0.622615 0.439465
vt 0.515493 0.428748
vt 0.554443 0.429894
vt 0.586925 0.428231
vt 0.508669 0.550046
vt 0.454084 0.592891
vt 0.475028 0.568242
vt 0.926287 0.567281
vt 0.950327 0.590071
vt 0.817285 0.425029
vt 0.848398 0.427839
vt 0.892644 0.550572
vt 0.902486 0.442798
vt 0.901691 0.481862
vt 0.903636 0.514440
vt 0.781207 0.436690
vt 0.714189 0.355465
vt 0.737911 0.382228
vt 0.762731 0.403003
vt 0.766627 0.854246
vt 0.742385 0.875513
vt 0.909601 0.746285
vt 0.906475 0.777451
vt 0.783742 0.820532
vt 0.890883 0.831416
vt 0.851928 0.830194
vt 0.819409 0.831793
vt 0.898136 0.709813
vt 0.978154 0.643675
vt 0.952685 0.666692
vt 0.931760 0.691408
vt 0.427159 0.616374
vt 0.426396 0.640053
vt 0.477003 0.691915
vt 0.454155 0.668411
vt 0.585550 0.834634
vt 0.554467 0.831678
vt 0.510668 0.708934
vt 0.500474 0.816498
vt 0.501373 0.777502
vt 0.499528 0.744928
vt 0.621787 0.823138
vt 0.690464 0.904929
vt 0.665316 0.877718
vt 0.640334 0.856937
vt 0.763941 0.087976
vt 0.764564 0.112126
vt 0.748034 0.112715
vt 0.747403 0.088241
vt 0.765276 0.151382
vt 0.748824 0.151715
vt 0.762713 0.051418
vt 0.746266 0.051933
vt 0.765935 0.183907
vt 0.749483 0.184240
vt 0.761679 0.018399
vt 0.745231 0.018914
vt 0.745000 0.086778
vt 0.745758 0.110929
vt 0.729233 0.111607
vt 0.728465 0.087137
vt 0.746730 0.151469
vt 0.730280 0.151896
vt 0.743616 0.051412
vt 0.727172 0.052017
vt 0.747574 0.183990
vt 0.731124 0.184417
vt 0.742401 0.018398
vt 0.725956 0.019004
vt 0.815426 0.018398
vt 0.817714 0.057252
vt 0.801287 0.058219
vt 0.798999 0.019366
vt 0.819656 0.090230
vt 0.803229 0.091197
vt 0.821398 0.128060
vt 0.805455 0.128999
vt 0.799080 0.056302
vt 0.799842 0.089309
vt 0.783391 0.089689
vt 0.782629 0.056682
vt 0.800235 0.128544
vt 0.784297 0.128912
vt 0.798204 0.018399
vt 0.781753 0.018779
vt 0.800801 0.153020
vt 0.784863 0.153388
vt 0.855552 0.042881
vt 0.856114 0.080188
vt 0.839658 0.080209
vt 0.839610 0.042902
vt 0.856155 0.112110
vt 0.839699 0.112131
vt 0.855521 0.018399
vt 0.839579 0.018420
vt 0.856204 0.150640
vt 0.839749 0.150661
vt 0.892080 0.091431
vt 0.892361 0.129608
vt 0.875906 0.129729
vt 0.875624 0.091553
vt 0.891840 0.058900
vt 0.875384 0.059021
vt 0.891056 0.018399
vt 0.875085 0.018517
vt 0.909802 0.018399
vt 0.910097 0.057318
vt 0.893642 0.057444
vt 0.893346 0.018524
vt 0.910349 0.090353
vt 0.893894 0.090478
vt 0.910710 0.126930
vt 0.894170 0.126802
vt 0.780819 0.056302
vt 0.781582 0.089309
vt 0.765130 0.089689
vt 0.764368 0.056682
vt 0.781975 0.128544
vt 0.766037 0.128912
vt 0.779943 0.018399
vt 0.763492 0.018779
vt 0.782540 0.153020
vt 0.766602 0.153388
vt 0.838333 0.042881
vt 0.838936 0.080188
vt 0.822481 0.080227
vt 0.822391 0.042920
vt 0.839013 0.112109
vt 0.822558 0.112149
vt 0.838275 0.018399
vt 0.822332 0.018437
vt 0.839106 0.150639
vt 0.822650 0.150679
vt 0.874380 0.090186
vt 0.874968 0.128359
vt 0.858514 0.128612
vt 0.857926 0.090439
vt 0.873879 0.057658
vt 0.857425 0.057911
vt 0.873358 0.018399
vt 0.856825 0.018907
vt 0.788855 0.177778
vt 0.788854 0.153296
vt 0.804825 0.153295
vt 0.804826 0.177778
vt 0.839887 0.150840
vt 0.839886 0.174997
vt 0.823347 0.175160
vt 0.823347 0.150677
vt 0.894209 0.234740
vt 0.893575 0.197434
vt 0.910030 0.197381
vt 0.910152 0.234688
vt 0.893471 0.165512
vt 0.909927 0.165459
vt 0.893346 0.126982
vt 0.909802 0.126929
vt 0.876875 0.168115
vt 0.876100 0.129945
vt 0.892552 0.129611
vt 0.893328 0.167781
vt 0.841477 0.189920
vt 0.840593 0.151009
vt 0.857044 0.150636
vt 0.857928 0.189546
vt 0.927867 0.179337
vt 0.927892 0.146321
vt 0.944348 0.146334
vt 0.944323 0.179349
vt 0.928435 0.107087
vt 0.944378 0.107100
vt 0.927839 0.217250
vt 0.944294 0.217262
vt 0.874796 0.128559
vt 0.875430 0.165864
vt 0.858975 0.165918
vt 0.858854 0.128610
vt 0.875534 0.197786
vt 0.859078 0.197840
vt 0.875659 0.236316
vt 0.859204 0.236370
vt 0.927045 0.128574
vt 0.927820 0.166744
vt 0.911368 0.167078
vt 0.910593 0.128908
vt 0.821537 0.128649
vt 0.822421 0.167559
vt 0.805969 0.167933
vt 0.805086 0.129022
vt 0.928117 0.056325
vt 0.928092 0.089341
vt 0.911637 0.089328
vt 0.911662 0.056312
vt 0.927549 0.128574
vt 0.911607 0.128562
vt 0.928146 0.018412
vt 0.911690 0.018399
vt 0.695844 0.585890
vt 0.691315 0.588965
vt 0.678559 0.599174
vt 0.619568 0.555787
vt 0.627655 0.547006
vt 0.711843 0.588790
vt 0.695855 0.514505
vt 0.708035 0.514359
vt 0.742570 0.619441
vt 0.732552 0.606749
vt 0.717948 0.590862
vt 0.776171 0.547506
vt 0.785082 0.555562
vt 0.745419 0.639752
vt 0.745597 0.623965
vt 0.745594 0.623921
vt 0.818814 0.623570
vt 0.819100 0.635772
vt 0.715619 0.670734
vt 0.728300 0.660573
vt 0.744118 0.645815
vt 0.786930 0.704074
vt 0.778873 0.712890
vt 0.662614 0.613898
vt 0.660542 0.619991
vt 0.586254 0.635984
vt 0.586168 0.623802
vt 0.693482 0.671310
vt 0.709509 0.673812
vt 0.711094 0.673846
vt 0.709208 0.744843
vt 0.696850 0.745024
vt 0.657642 0.635990
vt 0.660695 0.640485
vt 0.670886 0.653238
vt 0.685743 0.669012
vt 0.627401 0.712349
vt 0.618565 0.704251
vt 0.674530 0.481285
vt 0.680019 0.441507
vt 0.572299 0.542789
vt 0.550898 0.510289
vt 0.611765 0.500629
vt 0.582332 0.480310
vt 0.543949 0.473053
vt 0.549342 0.601162
vt 0.509944 0.609284
vt 0.850810 0.602619
vt 0.890639 0.608270
vt 0.788922 0.500392
vt 0.821266 0.478821
vt 0.831380 0.539782
vt 0.851490 0.510198
vt 0.858456 0.471683
vt 0.730416 0.477613
vt 0.722013 0.438252
vt 0.700979 0.407531
vt 0.731943 0.778459
vt 0.726313 0.818198
vt 0.834489 0.717093
vt 0.855782 0.749682
vt 0.794885 0.759294
vt 0.824236 0.779680
vt 0.862602 0.787004
vt 0.857460 0.658613
vt 0.896872 0.650376
vt 0.926186 0.629436
vt 0.552774 0.657091
vt 0.512982 0.651332
vt 0.479096 0.630102
vt 0.614358 0.759466
vt 0.581957 0.780794
vt 0.571920 0.719965
vt 0.551708 0.749397
vt 0.544643 0.787775
vt 0.672819 0.782176
vt 0.681096 0.821504
vt 0.703635 0.852118
vt 0.449283 0.074646
vt 0.449283 0.130528
vt 0.426954 0.130528
vt 0.426954 0.074646
vt 0.449283 0.191600
vt 0.426954 0.191600
vt 0.449283 0.021581
vt 0.426954 0.021581
vt 0.520448 0.187334
vt 0.520448 0.242025
vt 0.498118 0.242025
vt 0.498118 0.187334
vt 0.520448 0.291730
vt 0.498118 0.291730
vt 0.567891 0.225669
vt 0.567891 0.278659
vt 0.545561 0.278659
vt 0.545561 0.225669
vt 0.567891 0.171546
vt 0.545561 0.171546
vt 0.473005 0.077352
vt 0.473005 0.133101
vt 0.450675 0.133101
vt 0.450675 0.077352
vt 0.473005 0.190098
vt 0.450675 0.190098
vt 0.473005 0.021581
vt 0.450675 0.021581
vt 0.496726 0.073396
vt 0.496726 0.129278
vt 0.474397 0.129278
vt 0.474397 0.073396
vt 0.496726 0.188785
vt 0.474397 0.188785
vt 0.496726 0.021581
vt 0.474397 0.021581
vt 0.496726 0.188785
vt 0.496726 0.243476
vt 0.474397 0.243476
vt 0.474397 0.188785
vt 0.496726 0.293182
vt 0.474397 0.293182
vt 0.591612 0.213755
vt 0.591612 0.266744
vt 0.569283 0.266744
vt 0.569283 0.213755
vt 0.591612 0.159632
vt 0.569283 0.159632
vt 0.520448 0.075757
vt 0.520448 0.131506
vt 0.498118 0.131506
vt 0.498118 0.075757
vt 0.520448 0.187334
vt 0.498118 0.187334
vt 0.520448 0.021581
vt 0.498118 0.021581
vt 0.591612 0.038152
vt 0.591612 0.105509
vt 0.569283 0.105509
vt 0.569283 0.038152
vt 0.591612 0.159632
vt 0.569283 0.159632
vt 0.591612 0.021581
vt 0.569283 0.021581
vt 0.544169 0.103631
vt 0.544169 0.112491
vt 0.521840 0.112491
vt 0.521840 0.103631
vt 0.544169 0.142160
vt 0.521840 0.142160
vt 0.544169 0.081224
vt 0.521840 0.081224
vt 0.544169 0.164607
vt 0.521840 0.164607
vt 0.544169 0.073721
vt 0.521840 0.073721
vt 0.544169 0.172136
vt 0.521840 0.172136
vt 0.544169 0.051239
vt 0.521840 0.051239
vt 0.544169 0.021581
vt 0.521840 0.021581
vt 0.639055 0.071286
vt 0.639055 0.138991
vt 0.616725 0.138991
vt 0.616725 0.071286
vt 0.639055 0.155523
vt 0.616725 0.155523
vt 0.639055 0.021581
vt 0.616725 0.021581
vt 0.567891 0.081224
vt 0.567891 0.081288
vt 0.545561 0.081288
vt 0.545561 0.081224
vt 0.567891 0.103258
vt 0.545561 0.103258
vt 0.567891 0.073695
vt 0.545561 0.073695
vt 0.567891 0.111903
vt 0.545561 0.111903
vt 0.567891 0.051251
vt 0.545561 0.051251
vt 0.567891 0.141581
vt 0.545561 0.141581
vt 0.567891 0.021581
vt 0.545561 0.021581
vt 0.567891 0.163998
vt 0.545561 0.163998
vt 0.567891 0.171546
vt 0.545561 0.171546
vt 0.615333 0.038156
vt 0.615333 0.105447
vt 0.593004 0.105447
vt 0.593004 0.038156
vt 0.615333 0.159570
vt 0.593004 0.159570
vt 0.615333 0.021581
vt 0.593004 0.021581
vt 0.662776 0.071286
vt 0.662776 0.138881
vt 0.640447 0.138881
vt 0.640447 0.071286
vt 0.662776 0.155440
vt 0.640447 0.155440
vt 0.662776 0.021581
vt 0.640447 0.021581
vt 0.686498 0.212199
vt 0.686498 0.228972
vt 0.664168 0.228972
vt 0.664168 0.212199
vt 0.686498 0.283186
vt 0.664168 0.283186
vt 0.686498 0.152424
vt 0.664168 0.152424
vt 0.686498 0.083247
vt 0.686498 0.100030
vt 0.664168 0.100030
vt 0.664168 0.083247
vt 0.686498 0.152424
vt 0.664168 0.152424
vt 0.686498 0.021581
vt 0.664168 0.021581
vt 0.449283 0.259318
vt 0.449283 0.312307
vt 0.426954 0.312307
vt 0.426954 0.259318
vt 0.639055 0.155523
vt 0.639055 0.211272
vt 0.616725 0.211272
vt 0.616725 0.155523
vt 0.639055 0.267100
vt 0.616725 0.267100
vt 0.544169 0.222150
vt 0.544169 0.278031
vt 0.521840 0.278031
vt 0.521840 0.222150
vt 0.544169 0.172136
vt 0.521840 0.172136
vt 0.710219 0.156459
vt 0.710219 0.211150
vt 0.687890 0.211150
vt 0.687890 0.156459
vt 0.450675 0.310989
vt 0.450675 0.257999
vt 0.473005 0.257999
vt 0.473005 0.310989
vt 0.640447 0.268896
vt 0.640447 0.213146
vt 0.662776 0.213146
vt 0.662776 0.268896
vt 0.640447 0.155440
vt 0.662776 0.155440
vt 0.593004 0.215451
vt 0.593004 0.159570
vt 0.615333 0.159570
vt 0.615333 0.215451
vt 0.593004 0.267267
vt 0.615333 0.267267
vt 0.687890 0.265841
vt 0.687890 0.211150
vt 0.710219 0.211150
vt 0.710219 0.265841
vt 0.426954 0.259318
vt 0.426954 0.191600
vt 0.449283 0.191600
vt 0.449283 0.259318
vt 0.710219 0.265841
vt 0.710219 0.268033
vt 0.687890 0.268033
vt 0.687890 0.265841
vt 0.710219 0.290338
vt 0.687890 0.290338
vt 0.710219 0.301426
vt 0.687890 0.301426
vt 0.450675 0.257999
vt 0.450675 0.190098
vt 0.473005 0.190098
vt 0.473005 0.257999
vt 0.710219 0.089097
vt 0.710219 0.156459
vt 0.687890 0.156459
vt 0.687890 0.089097
vt 0.569283 0.275626
vt 0.569283 0.266744
vt 0.591612 0.266744
vt 0.591612 0.275626
vt 0.569283 0.298010
vt 0.591612 0.298010
vt 0.710219 0.021581
vt 0.710219 0.089097
vt 0.687890 0.089097
vt 0.687890 0.021581
vt 0.616725 0.267100
vt 0.633745 0.267100
vt 0.633745 0.289429
vt 0.616725 0.289429
vt 0.609792 0.289596
vt 0.593004 0.289596
vt 0.593004 0.267267
vt 0.609792 0.267267
vn -0.000000 1.000000 0.000000
vn -0.000000 1.000000 0.000000
vn 0.000000 1.000000 0.000000
vn 0.000000 1.000000 0.000000
vn 0.000000 1.000000 0.000001
vn 0.000000 1.000000 0.000000
vn 0.000000 1.000000 -0.000000
vn 0.000000 1.000000 -0.000000
vn 0.000000 1.000000 -0.000000
vn 0.000000 1.000000 -0.000000
vn 0.000000 1.000000 0.000000
vn 0.000000 1.000000 -0.000000
vn -0.000000 1.000000 -0.000000
vn -0.000000 1.000000 -0.000000
vn -0.000000 1.000000 0.000000
vn -0.000000 1.000000 0.000000
vn -0.000000 1.000000 0.000000
vn -0.000000 1.000000 0.000000
vn 0.000000 1.000000 -0.000000
vn 0.000000 1.000000 -0.000000
vn -0.000000 1.000000 0.000000
vn -0.000000 1.000000 0.000000
vn -0.000000 1.000000 0.000000
vn 0.000000 1.000000 0.000000
vn 0.000000 1.000000 -0.000000
vn 0.000000 1.000000 -0.000000
vn -0.000000 1.000000 -0.000000
vn -0.000000 1.000000 -0.000000
vn -0.000000 1.000000 -0.000000
vn -0.000000 1.000000 -0.000000
vn -0.000000 1.000000 0.000000
vn 0.000000 1.000000 -0.000000
vn -0.000000 1.000000 -0.000000
vn -0.000000 1.000000 -0.000000
vn -0.000000 1.000000 -0.000000
vn -0.000000 1.000000 0.000000
vn 0.000000 1.000000 0.000000
vn 0.000000 1.000000 0.000000
vn 0.000000 1.000000 -0.000000
vn 0.000000 1.000000 -0.000000
vn 0.000000 1.000000 -0.000000
vn 0.000000 1.000000 -0.000000
vn -0.000000 1.000000 -0.000000
vn 0.000000 1.000000 -0.000000
vn -0.000000 1.000000 -0.000000
vn 0.000000 1.000000 -0.000000
vn 0.000000 1.000000 0.000000
vn -0.000000 1.000000 -0.000000
vn 0.856474 0.000000 0.516190
vn 0.856474 0.000000 0.516190
vn 0.856474 0.000000 0.516190
vn 0.856474 0.000000 0.516190
vn 0.892470 0.000000 -0.451107
vn 0.892470 0.000000 -0.451107
vn 0.892470 0.000000 -0.451107
vn 0.892470 0.000000 -0.451107
vn -0.542095 0.000000 -0.840317
vn -0.542095 0.000000 -0.840317
vn -0.542095 0.000000 -0.840317
vn -0.542095 0.000000 -0.840317
vn -0.892472 0.000000 0.451102
vn -0.892472 0.000000 0.451102
vn -0.892472 0.000000 0.451102
vn -0.892472 0.000000 0.451102
vn 0.045982 0.000000 0.998942
vn 0.045982 0.000000 0.998942
vn 0.045982 0.000000 0.998942
vn 0.045982 0.000000 0.998942
vn 0.999963 0.000000 0.008615
vn 0.999963 0.000000 0.008615
vn 0.999963 0.000000 0.008615
vn 0.999963 0.000000 0.008615
vn -0.020055 0.000000 -0.999799
vn -0.020055 0.000000 -0.999799
vn -0.020055 0.000000 -0.999799
vn -0.020055 0.000000 -0.999799
vn -0.999962 0.000000 -0.008770
vn -0.999962 0.000000 -0.008770
vn -0.999962 0.000000 -0.008770
vn -0.999962 0.000000 -0.008770
vn 0.998700 0.000000 -0.050974
vn 0.998700 0.000000 -0.050974
vn 0.998700 0.000000 -0.050974
vn 0.998700 0.000000 -0.050974
vn 0.007686 0.000000 -0.999971
vn 0.007686 0.000000 -0.999971
vn 0.007686 0.000000 -0.999971
vn 0.007686 0.000000 -0.999971
vn -0.999769 0.000000 0.021494
vn -0.999769 0.000000 0.021494
vn -0.999769 0.000000 0.021494
vn -0.999769 0.000000 0.021494
vn -0.007638 0.000000 0.999971
vn -0.007638 0.000000 0.999971
vn -0.007638 0.000000 0.999971
vn -0.007638 0.000000 0.999971
vn -0.516184 0.000000 0.856478
vn -0.516184 0.000000 0.856478
vn -0.516184 0.000000 0.856478
vn -0.516184 0.000000 0.856478
vn 0.451096 0.000000 0.892476
vn 0.451096 0.000000 0.892476
vn 0.451096 0.000000 0.892476
vn 0.451096 0.000000 0.892476
vn 0.836655 0.000000 -0.547731
vn 0.836655 0.000000 -0.547731
vn 0.836655 0.000000 -0.547731
vn 0.836655 0.000000 -0.547731
vn -0.451102 0.000000 -0.892473
vn -0.451102 0.000000 -0.892473
vn -0.451102 0.000000 -0.892473
vn -0.451102 0.000000 -0.892473
vn -0.999975 0.000000 0.007118
vn -0.999975 0.000000 0.007118
vn -0.999975 0.000000 0.007118
vn -0.999975 0.000000 0.007118
vn -0.016938 0.000000 0.999857
vn -0.016938 0.000000 0.999857
vn -0.016938 0.000000 0.999857
vn -0.016938 0.000000 0.999857
vn 0.999936 0.000000 0.011307
vn 0.999936 0.000000 0.011307
vn 0.999936 0.000000 0.011307
vn 0.999936 0.000000 0.011307
vn 0.016963 0.000000 -0.999856
vn 0.016963 0.000000 -0.999856
vn 0.016963 0.000000 -0.999856
vn 0.016963 0.000000 -0.999856
vn -0.856484 0.000000 -0.516174
vn -0.856484 0.000000 -0.516174
vn -0.856484 0.000000 -0.516174
vn -0.856484 0.000000 -0.516174
vn -0.892470 0.000000 0.451107
vn -0.892470 0.000000 0.451107
vn -0.892470 0.000000 0.451107
vn -0.892470 0.000000 0.451107
vn 0.545352 0.000000 0.838207
vn 0.545352 0.000000 0.838207
vn 0.545352 0.000000 0.838207
vn 0.545352 0.000000 0.838207
vn 0.892474 0.000000 -0.451099
vn 0.892474 0.000000 -0.451099
vn 0.892474 0.000000 -0.451099
vn 0.892474 0.000000 -0.451099
vn -0.050952 0.000000 -0.998701
vn -0.050952 0.000000 -0.998701
vn -0.050952 0.000000 -0.998701
vn -0.050952 0.000000 -0.998701
vn -0.999972 0.000000 -0.007553
vn -0.999972 0.000000 -0.007553
vn -0.999972 0.000000 -0.007553
vn -0.999972 0.000000 -0.007553
vn 0.021508 0.000000 0.999769
vn 0.021508 0.000000 0.999769
vn 0.021508 0.000000 0.999769
vn 0.021508 0.000000 0.999769
vn 0.999970 0.000000 0.007764
vn 0.999970 0.000000 0.007764
vn 0.999970 0.000000 0.007764
vn 0.999970 0.000000 0.007764
vn 0.516171 0.000000 -0.856486
vn 0.516171 0.000000 -0.856486
vn 0.516171 0.000000 -0.856486
vn 0.516171 0.000000 -0.856486
vn -0.451100 0.000000 -0.892474
vn -0.451100 0.000000 -0.892474
vn -0.451099 0.000000 -0.892474
vn -0.451099 0.000000 -0.892474
vn -0.838394 0.000000 0.545065
vn -0.838394 0.000000 0.545065
vn -0.838394 0.000000 0.545065
vn -0.838394 0.000000 0.545065
vn 0.451099 0.000000 0.892474
vn 0.451099 0.000000 0.892474
vn 0.451099 0.000000 0.892474
vn 0.451099 0.000000 0.892474
vn -0.268410 0.942366 -0.199758
vn -0.268410 0.942366 -0.199758
vn -0.300917 0.940506 -0.157790
vn -0.300917 0.940506 -0.157790
vn -0.240638 0.938435 -0.247858
vn -0.240661 0.938432 -0.247846
vn -0.256491 0.936361 -0.239669
vn -0.256491 0.936361 -0.239669
vn 0.018589 0.000000 -0.999827
vn 0.018589 0.000000 -0.999827
vn 0.018589 0.000000 -0.999827
vn 0.018589 0.000000 -0.999827
vn 0.265464 0.936379 -0.229616
vn 0.265464 0.936379 -0.229616
vn 0.244505 0.938564 -0.243547
vn 0.244534 0.938561 -0.243528
vn 0.107742 0.940506 -0.322242
vn 0.107742 0.940506 -0.322242
vn 0.050112 0.942789 -0.329603
vn 0.050112 0.942789 -0.329603
vn -0.284131 0.940506 0.186325
vn -0.284131 0.940506 0.186325
vn -0.308573 0.943094 0.123918
vn -0.308573 0.943094 0.123918
vn 0.275469 0.940506 0.198908
vn 0.275469 0.940506 0.198908
vn 0.302856 0.942872 0.138819
vn 0.302856 0.942872 0.138819
vn 0.332691 0.940506 0.069027
vn 0.332691 0.940506 0.069027
vn 0.285109 0.940506 -0.184826
vn 0.285109 0.940506 -0.184826
vn 0.285109 0.940506 -0.184826
vn 0.285109 0.940506 -0.184826
vn -0.329788 0.942540 0.053463
vn -0.329788 0.942540 0.053463
vn -0.321835 0.940506 0.108951
vn -0.321835 0.940506 0.108951
vn -0.345680 0.938349 0.002373
vn -0.345688 0.938346 0.002403
vn -0.350917 0.936128 0.022841
vn -0.350917 0.936128 0.022841
vn -0.713576 0.000000 -0.700578
vn -0.713576 0.000000 -0.700578
vn -0.713576 0.000000 -0.700578
vn -0.713576 0.000000 -0.700578
vn 0.016078 0.936139 -0.351261
vn 0.016078 0.936140 -0.351261
vn -0.005898 0.938406 -0.345485
vn -0.005864 0.938403 -0.345494
vn -0.149628 0.940506 -0.305056
vn -0.149628 0.940506 -0.305056
vn -0.196840 0.942830 -0.268934
vn -0.196840 0.942830 -0.268934
vn -0.063943 0.940506 0.333705
vn -0.063943 0.940506 0.333705
vn -0.120100 0.942562 0.311695
vn -0.120100 0.942562 0.311695
vn 0.333022 0.940506 -0.067413
vn 0.333022 0.940506 -0.067413
vn 0.310241 0.942739 -0.122448
vn 0.310241 0.942739 -0.122448
vn 0.180167 0.945665 -0.270660
vn 0.180167 0.945665 -0.270660
vn 0.108704 0.940506 -0.321918
vn 0.108704 0.940506 -0.321918
vn -0.267762 0.947088 0.176997
vn -0.267762 0.947088 0.176997
vn -0.326988 0.940506 0.092345
vn -0.326988 0.940506 0.092345
vn -0.232863 0.942020 -0.241606
vn -0.232939 0.942018 -0.241542
vn -0.209841 0.942269 -0.260953
vn -0.209841 0.942269 -0.260953
vn -0.999761 -0.011791 -0.018432
vn -0.999761 -0.011791 -0.018432
vn -0.999761 -0.011791 -0.018432
vn -0.999761 -0.011791 -0.018432
vn -0.219345 0.942268 0.253019
vn -0.219345 0.942268 0.253019
vn -0.237283 0.941729 0.238418
vn -0.237223 0.941732 0.238468
vn 0.176913 0.940507 0.290085
vn 0.176913 0.940507 0.290085
vn 0.118858 0.942727 0.311670
vn 0.118858 0.942727 0.311670
vn 0.189364 0.940506 -0.282115
vn 0.189364 0.940506 -0.282115
vn 0.133756 0.942506 -0.306255
vn 0.133756 0.942506 -0.306255
vn -0.069845 0.946979 0.313612
vn -0.069845 0.946979 0.313612
vn -0.181217 0.940506 0.287416
vn -0.181217 0.940506 0.287416
vn 0.199765 0.942366 -0.268404
vn 0.199765 0.942366 -0.268404
vn 0.157791 0.940506 -0.300915
vn 0.157791 0.940506 -0.300915
vn 0.240107 0.941633 -0.235957
vn 0.240161 0.941630 -0.235913
vn 0.224279 0.942241 -0.248758
vn 0.224279 0.942241 -0.248758
vn 0.999262 -0.011582 0.036630
vn 0.999262 -0.011582 0.036630
vn 0.999262 -0.011582 0.036630
vn 0.999262 -0.011582 0.036630
vn 0.205410 0.942242 0.264550
vn 0.205410 0.942242 0.264550
vn 0.229977 0.942110 0.244007
vn 0.230055 0.942108 0.243941
vn 0.322242 0.940506 0.107742
vn 0.322242 0.940506 0.107742
vn 0.329603 0.942789 0.050111
vn 0.329603 0.942789 0.050111
vn -0.171153 0.940507 -0.293520
vn -0.171153 0.940507 -0.293520
vn -0.116316 0.942515 -0.313266
vn -0.116316 0.942515 -0.313266
vn -0.196185 0.940507 0.277415
vn -0.196185 0.940507 0.277415
vn -0.136656 0.942767 0.304164
vn -0.136656 0.942767 0.304164
vn 0.061666 0.947677 0.313219
vn 0.061666 0.947677 0.313219
vn 0.173795 0.940506 0.291965
vn 0.173795 0.940506 0.291964
vn -0.053463 0.942540 -0.329788
vn -0.053463 0.942540 -0.329788
vn -0.108950 0.940506 -0.321835
vn -0.108950 0.940506 -0.321835
vn -0.002373 0.938349 -0.345680
vn -0.002403 0.938346 -0.345688
vn -0.022841 0.936128 -0.350917
vn -0.022841 0.936128 -0.350917
vn 0.700579 0.000000 -0.713574
vn 0.700579 0.000000 -0.713575
vn 0.700579 0.000000 -0.713574
vn 0.700579 0.000000 -0.713574
vn 0.351262 0.936139 0.016079
vn 0.351262 0.936139 0.016079
vn 0.345485 0.938406 -0.005898
vn 0.345494 0.938403 -0.005864
vn 0.305056 0.940506 -0.149629
vn 0.305056 0.940506 -0.149629
vn 0.268996 0.942829 -0.196761
vn 0.268996 0.942829 -0.196761
vn -0.333704 0.940506 -0.063946
vn -0.333704 0.940506 -0.063946
vn -0.311689 0.942562 -0.120115
vn -0.311689 0.942562 -0.120115
vn 0.067414 0.940506 0.333022
vn 0.067414 0.940506 0.333022
vn 0.122419 0.942739 0.310253
vn 0.122418 0.942739 0.310253
vn 0.270120 0.945540 0.181628
vn 0.270121 0.945540 0.181628
vn 0.321046 0.940506 0.111252
vn 0.321046 0.940507 0.111252
vn -0.175851 0.947162 -0.268256
vn -0.175851 0.947162 -0.268256
vn -0.090888 0.940506 -0.327396
vn -0.090888 0.940506 -0.327396
vn -0.310683 0.947525 -0.075318
vn -0.310683 0.947525 -0.075318
vn -0.281824 0.940506 -0.189797
vn -0.281824 0.940506 -0.189797
vn 0.268353 0.942367 0.199830
vn 0.268353 0.942367 0.199830
vn 0.300915 0.940506 0.157792
vn 0.300915 0.940506 0.157792
vn 0.238468 0.941732 0.237222
vn 0.238418 0.941729 0.237283
vn 0.253019 0.942268 0.219345
vn 0.253019 0.942268 0.219345
vn -0.018432 -0.011793 0.999761
vn -0.018432 -0.011793 0.999761
vn -0.018432 -0.011793 0.999761
vn -0.018432 -0.011793 0.999761
vn -0.260953 0.942269 0.209841
vn -0.260953 0.942269 0.209841
vn -0.241606 0.942020 0.232863
vn -0.241541 0.942018 0.232939
vn -0.107742 0.940506 0.322242
vn -0.107742 0.940506 0.322242
vn -0.050112 0.942789 0.329603
vn -0.050112 0.942789 0.329603
vn 0.290084 0.940507 -0.176915
vn 0.290084 0.940507 -0.176915
vn 0.311675 0.942727 -0.118844
vn 0.311675 0.942727 -0.118844
vn -0.282115 0.940506 -0.189364
vn -0.282115 0.940506 -0.189364
vn -0.306254 0.942506 -0.133759
vn -0.306254 0.942506 -0.133759
vn -0.332691 0.940506 -0.069027
vn -0.332691 0.940506 -0.069027
vn -0.289528 0.940506 0.177825
vn -0.289528 0.940506 0.177825
vn -0.289528 0.940506 0.177825
vn -0.289528 0.940506 0.177825
vn 0.329788 0.942540 -0.053463
vn 0.329788 0.942540 -0.053463
vn 0.321835 0.940506 -0.108951
vn 0.321835 0.940506 -0.108951
vn 0.345680 0.938349 -0.002373
vn 0.345688 0.938347 -0.002403
vn 0.350917 0.936128 -0.022841
vn 0.350917 0.936128 -0.022841
vn 0.713576 0.000000 0.700577
vn 0.713576 0.000000 0.700577
vn 0.713576 0.000000 0.700577
vn 0.713576 0.000000 0.700577
vn -0.016078 0.936139 0.351261
vn -0.016078 0.936139 0.351261
vn 0.005898 0.938406 0.345485
vn 0.005864 0.938403 0.345494
vn 0.149628 0.940507 0.305056
vn 0.149628 0.940507 0.305056
vn 0.196904 0.942831 0.268884
vn 0.196904 0.942831 0.268884
vn 0.063943 0.940506 -0.333706
vn 0.063943 0.940506 -0.333706
vn 0.120116 0.942562 -0.311688
vn 0.120116 0.942562 -0.311688
vn -0.333022 0.940506 0.067413
vn -0.333022 0.940506 0.067413
vn -0.310243 0.942739 0.122442
vn -0.310243 0.942739 0.122442
vn -0.180660 0.945644 0.270407
vn -0.180660 0.945644 0.270407
vn -0.109223 0.940506 0.321743
vn -0.109223 0.940506 0.321743
vn 0.268001 0.947176 -0.176163
vn 0.268001 0.947176 -0.176163
vn 0.327433 0.940506 -0.090754
vn 0.327433 0.940506 -0.090754
vn 0.070817 0.947290 -0.312451
vn 0.070816 0.947290 -0.312452
vn 0.186106 0.940506 -0.284276
vn 0.186106 0.940506 -0.284276
vn -0.199830 0.942366 0.268353
vn -0.199830 0.942366 0.268354
vn -0.157791 0.940506 0.300916
vn -0.157791 0.940506 0.300916
vn -0.322242 0.940506 -0.107742
vn -0.322242 0.940506 -0.107742
vn -0.329603 0.942789 -0.050112
vn -0.329603 0.942789 -0.050112
vn 0.069028 0.940506 -0.332690
vn 0.069028 0.940506 -0.332690
vn -0.178094 0.940506 -0.289362
vn -0.178094 0.940506 -0.289362
vn -0.178094 0.940506 -0.289362
vn -0.178094 0.940506 -0.289362
vn 0.053462 0.942540 0.329788
vn 0.053462 0.942540 0.329788
vn 0.108949 0.940506 0.321835
vn 0.108949 0.940506 0.321835
vn 0.002373 0.938350 0.345680
vn 0.002404 0.938347 0.345688
vn 0.022842 0.936128 0.350916
vn 0.022842 0.936128 0.350916
vn -0.700573 0.000000 0.713580
vn -0.700574 0.000000 0.713580
vn -0.700573 0.000000 0.713580
vn -0.700573 0.000000 0.713580
vn -0.351261 0.936140 -0.016075
vn -0.351261 0.936140 -0.016075
vn -0.345485 0.938406 0.005899
vn -0.345494 0.938403 0.005865
vn -0.305056 0.940507 0.149627
vn -0.305056 0.940507 0.149627
vn -0.268934 0.942830 0.196840
vn -0.268934 0.942830 0.196840
vn 0.333706 0.940507 0.063939
vn 0.333706 0.940507 0.063939
vn 0.311690 0.942562 0.120109
vn 0.311690 0.942562 0.120109
vn -0.067415 0.940506 -0.333022
vn -0.067415 0.940506 -0.333022
vn -0.122436 0.942739 -0.310246
vn -0.122436 0.942739 -0.310246
vn -0.270396 0.945616 -0.180820
vn -0.270396 0.945616 -0.180820
vn -0.321570 0.940506 -0.109729
vn -0.321570 0.940506 -0.109729
vn 0.176336 0.947142 0.268008
vn 0.176336 0.947142 0.268008
vn 0.091328 0.940506 0.327274
vn 0.091328 0.940506 0.327274
vn 0.313252 0.947055 0.070427
vn 0.313252 0.947055 0.070427
vn 0.286647 0.940507 0.182430
vn 0.286647 0.940507 0.182430
vn -0.234122 0.940506 -0.246241
vn -0.234122 0.940506 -0.246241
vn -0.234122 0.940506 -0.246241
vn -0.234122 0.940506 -0.246241
vn 0.202337 0.943725 0.261615
vn 0.202337 0.943725 0.261615
vn 0.070337 0.940736 0.331767
vn 0.070337 0.940736 0.331767
vn 0.255760 0.940582 0.223365
vn 0.255760 0.940582 0.223365
vn 0.270900 0.940573 0.204781
vn 0.270900 0.940573 0.204781
vn 0.280493 0.940506 0.191760
vn 0.280493 0.940506 0.191760
vn 0.334557 0.940506 -0.059326
vn 0.334557 0.940506 -0.059326
vn 0.330844 0.940754 -0.074324
vn 0.330844 0.940754 -0.074324
vn 0.002978 0.940506 -0.339763
vn 0.002978 0.940506 -0.339763
vn 0.002978 0.940506 -0.339763
vn 0.002978 0.940506 -0.339763
vn -0.120130 0.945179 0.303653
vn -0.120130 0.945179 0.303653
vn -0.205157 0.940571 0.270621
vn -0.205157 0.940571 0.270621
vn 0.042774 0.940690 0.336560
vn 0.042774 0.940690 0.336560
vn -0.339771 0.940506 -0.001846
vn -0.339771 0.940506 -0.001846
vn -0.339771 0.940506 -0.001846
vn -0.339771 0.940506 -0.001846
vn 0.257385 0.943184 -0.210138
vn 0.257385 0.943184 -0.210138
vn 0.223351 0.940582 -0.255773
vn 0.223351 0.940582 -0.255773
vn 0.247688 0.940506 -0.232592
vn 0.247688 0.940506 -0.232592
vn 0.247688 0.940506 -0.232592
vn 0.247688 0.940506 -0.232592
vn -0.261094 0.944448 0.199620
vn -0.261094 0.944448 0.199620
vn -0.337046 0.940980 0.030943
vn -0.337046 0.940980 0.030943
vn -0.223456 0.940582 0.255683
vn -0.223456 0.940582 0.255683
vn 0.339697 0.940507 0.007263
vn 0.339697 0.940507 0.007263
vn 0.339697 0.940507 0.007263
vn 0.339697 0.940507 0.007263
vn -0.295307 0.942363 -0.157309
vn -0.295306 0.942363 -0.157311
vn -0.270256 0.940569 -0.205651
vn -0.270256 0.940569 -0.205651
vn -0.339079 0.940756 -0.001549
vn -0.339079 0.940757 -0.001549
vn 0.233333 0.940506 0.246989
vn 0.233333 0.940506 0.246989
vn 0.233333 0.940506 0.246989
vn 0.233333 0.940506 0.246989
vn -0.210090 0.943186 -0.257415
vn -0.210090 0.943186 -0.257415
vn -0.074320 0.940754 -0.330844
vn -0.074320 0.940754 -0.330844
vn -0.255772 0.940582 -0.223353
vn -0.255772 0.940582 -0.223353
vn -0.002716 0.940507 0.339765
vn -0.002716 0.940507 0.339765
vn -0.002716 0.940507 0.339765
vn -0.002716 0.940507 0.339765
vn -0.059283 0.940506 -0.334566
vn -0.059283 0.940506 -0.334566
vn -0.246974 0.940506 0.233350
vn -0.246974 0.940506 0.233350
vn -0.246974 0.940506 0.233350
vn -0.246974 0.940506 0.233350
vn 0.204761 0.940574 -0.270914
vn 0.204761 0.940574 -0.270914
vn 0.191729 0.940506 -0.280514
vn 0.191729 0.940506 -0.280514
vn -0.000000 1.000000 -0.000000
vn -0.000000 1.000000 0.000000
vn -0.000001 1.000000 -0.000000
vn -0.000001 1.000000 -0.000001
vn -0.000001 1.000000 -0.000000
vn -0.000000 1.000000 -0.000000
vn -0.000001 1.000000 0.000000
vn 0.000000 1.000000 -0.000000
vn 0.000002 1.000000 0.000000
vn 0.000001 1.000000 -0.000000
vn 0.000001 1.000000 -0.000001
vn -0.000000 1.000000 0.000000
vn 0.000000 1.000000 -0.000000
vn 0.000002 1.000000 0.000000
vn 0.000000 1.000000 -0.000000
vn 0.000000 1.000000 -0.000000
vn 0.000000 1.000000 -0.000000
vn 0.000001 1.000000 -0.000002
vn 0.000000 1.000000 0.000000
vn -0.000001 1.000000 0.000000
vn 0.000009 -1.000000 0.000000
vn 0.000009 -1.000000 0.000000
vn 0.000009 -1.000000 0.000000
vn 0.000009 -1.000000 0.000000
vn 0.000000 1.000000 0.000000
vn 0.000000 1.000000 0.000000
vn 0.000000 1.000000 0.000000
vn -0.000000 1.000000 0.000000
vn -0.000000 1.000000 -0.000000
vn 0.000000 1.000000 -0.000000
vn 0.000001 1.000000 -0.000001
vn 0.000001 1.000000 -0.000001
vn 0.000000 1.000000 -0.000001
vn 0.000000 1.000000 -0.000000
vn -0.000000 1.000000 -0.000001
vn 0.000000 1.000000 0.000000
vn -0.000000 1.000000 0.000002
vn 0.000000 1.000000 0.000001
vn 0.000001 1.000000 0.000000
vn -0.000000 1.000000 -0.000002
vn -0.000000 1.000000 0.000000
vn -0.000000 1.000000 0.000002
vn 0.000000 1.000000 -0.000000
vn 0.000000 1.000000 0.000000
vn -0.000000 1.000000 0.000000
vn 0.000001 1.000000 0.000001
vn -0.000000 1.000000 0.000000
vn -0.000000 1.000000 -0.000001
vn 0.000000 1.000000 0.000000
vn -0.000001 1.000000 0.000002
vn 0.000000 1.000000 0.000000
vn -0.000000 1.000000 -0.000000
vn 0.000000 1.000000 -0.000000
vn 0.000001 1.000000 0.000001
vn 0.000001 1.000000 0.000002
vn 0.000001 1.000000 0.000002
vn 0.000001 1.000000 0.000000
vn 0.000000 1.000000 -0.000000
vn 0.000001 1.000000 -0.000000
vn -0.000000 1.000000 0.000000
vn -0.000002 1.000000 -0.000000
vn -0.000001 1.000000 0.000000
vn -0.000001 1.000000 0.000001
vn 0.000000 1.000000 -0.000000
vn -0.000000 1.000000 -0.000000
vn -0.000002 1.000000 -0.000000
vn -0.000000 1.000000 0.000000
vn -0.000000 1.000000 0.000000
vn -0.000000 1.000000 -0.000000
vn -0.000001 1.000000 0.000002
vn -0.000000 1.000000 -0.000000
vn 0.000001 1.000000 -0.000000
vn -0.000001 -1.000000 -0.000003
vn -0.000001 -1.000000 -0.000003
vn -0.000001 -1.000000 -0.000003
vn -0.000001 -1.000000 -0.000003
vn -0.000000 1.000000 0.000000
vn -0.000000 1.000000 0.000000
vn -0.000000 1.000000 0.000000
vn 0.000000 1.000000 -0.000000
vn 0.000000 1.000000 -0.000000
vn -0.000000 1.000000 0.000001
vn -0.000001 1.000000 0.000002
vn -0.000001 1.000000 0.000002
vn -0.000000 1.000000 0.000000
vn -0.000000 1.000000 -0.000000
vn 0.000000 1.000000 0.000001
vn -0.000000 1.000000 -0.000000
vn 0.000000 1.000000 -0.000002
vn -0.000000 1.000000 -0.000001
vn -0.000001 1.000000 -0.000001
vn 0.000000 1.000000 -0.000002
vn 0.000000 1.000000 -0.000000
vn 0.000000 1.000000 -0.000001
vn -0.000000 1.000000 0.000000
vn -0.000000 1.000000 -0.000000
vn 0.000000 1.000000 -0.000000
vn -0.000001 1.000000 -0.000001
vn 0.000000 1.000000 -0.000000
vn 0.000000 1.000000 0.000001
vn 0.000010 -1.000000 -0.000018
vn 0.000010 -1.000000 -0.000018
vn 0.000010 -1.000000 -0.000018
vn 0.000010 -1.000000 -0.000018
vn -0.000000 1.000000 -0.000000
vn -0.000000 1.000000 -0.000000
vn -0.000000 1.000000 -0.000000
vn 0.000000 1.000000 0.000000
vn 0.000000 1.000000 -0.000000
vn -0.000001 1.000000 0.000000
vn 0.000000 1.000000 0.000000
vn 0.000000 1.000000 -0.000000
vn 0.000000 1.000000 -0.000000
vn 0.000000 1.000000 -0.000000
vn 0.000000 1.000000 0.000000
vn -0.000000 1.000000 -0.000001
vn -0.000000 1.000000 0.000000
vn 0.000000 1.000000 -0.000000
vn -0.000000 1.000000 0.000000
vn 0.000001 1.000000 -0.000000
vn -0.000000 1.000000 -0.000000
vn 0.000000 1.000000 0.000000
vn -0.000000 1.000000 -0.000000
vn 0.000000 1.000000 0.000001
vn 0.000001 1.000000 0.000001
vn 0.000001 1.000000 0.000001
vn 0.000001 1.000000 0.000002
vn -0.000000 1.000000 0.000002
vn 0.000001 1.000000 -0.000000
vn 0.000001 1.000000 0.000000
vn -0.000000 1.000000 0.000001
vn -0.000001 1.000000 0.000001
vn -0.000001 1.000000 0.000001
vn -0.000001 1.000000 -0.000000
vn -0.000001 1.000000 -0.000000
vn -0.000001 1.000000 -0.000001
vn -0.000001 1.000000 -0.000002
vn 0.000000 1.000000 -0.000001
vn 0.000000 1.000000 -0.000001
vn 0.000001 1.000000 -0.000000
vn 0.000000 1.000000 0.000001
vn -0.000001 1.000000 0.000000
vn -0.000001 1.000000 0.000002
vn -0.000000 1.000000 -0.000001
vn -0.000002 1.000000 -0.000002
vn 0.000001 1.000000 -0.000001
vn -0.792528 0.000000 -0.609836
vn -0.701276 0.000000 -0.712890
vn -0.701459 0.000000 -0.712710
vn -0.792528 0.000000 -0.609835
vn -0.742241 0.000000 -0.670133
vn -0.742241 0.000000 -0.670133
vn -0.885630 0.000000 -0.464393
vn -0.885629 0.000000 -0.464393
vn 0.810738 0.000000 0.585410
vn 0.917335 0.000000 0.398116
vn 0.917335 0.000000 0.398116
vn 0.810738 0.000000 0.585410
vn 0.979147 0.000000 0.203155
vn 0.979147 0.000000 0.203155
vn -0.989753 0.000000 0.142794
vn -0.999915 0.000000 0.013068
vn -0.999910 0.000000 0.013380
vn -0.989752 0.000000 0.142794
vn -0.996606 0.000000 0.082320
vn -0.996606 0.000000 0.082320
vn -0.947197 0.000000 0.320652
vn -0.947197 0.000000 0.320652
vn 0.980120 0.000000 -0.198405
vn 0.922709 0.000000 -0.385499
vn 0.922709 0.000000 -0.385499
vn 0.980120 0.000000 -0.198405
vn 0.818658 0.000000 -0.574281
vn 0.818658 0.000000 -0.574281
vn 0.063989 0.000000 -0.997951
vn -0.010882 0.000000 -0.999941
vn -0.010531 0.000000 -0.999945
vn 0.063989 0.000000 -0.997951
vn 0.132712 0.000000 -0.991155
vn 0.132712 0.000000 -0.991155
vn 0.317098 0.000000 -0.948393
vn 0.317098 0.000000 -0.948393
vn -0.378090 0.000000 0.925769
vn -0.188194 0.000000 0.982132
vn -0.188194 0.000000 0.982132
vn -0.378090 0.000000 0.925769
vn -0.549639 0.000000 0.835403
vn -0.549639 0.000000 0.835403
vn -0.625637 -0.000000 -0.780114
vn -0.694228 -0.000000 -0.719755
vn -0.694276 -0.000000 -0.719709
vn -0.625637 -0.000000 -0.780114
vn -0.605036 0.000000 -0.796198
vn -0.605036 0.000000 -0.796198
vn -0.440371 0.000000 -0.897816
vn -0.440371 0.000000 -0.897816
vn 0.336716 0.000000 0.941606
vn 0.520673 0.000000 0.853756
vn 0.520673 0.000000 0.853756
vn 0.336716 0.000000 0.941606
vn 0.138477 0.000000 0.990366
vn 0.138477 0.000000 0.990366
vn 0.609836 0.000000 -0.792528
vn 0.713083 0.000000 -0.701079
vn 0.713116 0.000000 -0.701046
vn 0.609836 0.000000 -0.792528
vn 0.668545 0.000000 -0.743672
vn 0.668545 0.000000 -0.743672
vn 0.464397 0.000000 -0.885627
vn 0.464397 0.000000 -0.885627
vn -0.577395 0.000000 0.816465
vn -0.388047 0.000000 0.921640
vn -0.388047 0.000000 0.921640
vn -0.577395 0.000000 0.816465
vn -0.203159 0.000000 0.979146
vn -0.203159 0.000000 0.979146
vn -0.142792 0.000000 -0.989753
vn -0.013068 0.000000 -0.999915
vn -0.013380 0.000000 -0.999910
vn -0.142792 0.000000 -0.989753
vn -0.082321 0.000000 -0.996606
vn -0.082321 0.000000 -0.996606
vn -0.320652 0.000000 -0.947197
vn -0.320652 0.000000 -0.947197
vn 0.198407 0.000000 0.980120
vn 0.385498 0.000000 0.922709
vn 0.385498 0.000000 0.922709
vn 0.198407 0.000000 0.980120
vn 0.574280 0.000000 0.818659
vn 0.574280 0.000000 0.818659
vn 0.997950 0.000000 0.063993
vn 0.999941 0.000000 -0.010882
vn 0.999945 0.000000 -0.010530
vn 0.997950 0.000000 0.063993
vn 0.991155 0.000000 0.132710
vn 0.991155 0.000000 0.132710
vn 0.948393 0.000000 0.317098
vn 0.948393 0.000000 0.317098
vn -0.925769 0.000000 -0.378090
vn -0.982130 0.000000 -0.188202
vn -0.982130 0.000000 -0.188202
vn -0.925769 0.000000 -0.378091
vn -0.835406 0.000000 -0.549634
vn -0.835406 0.000000 -0.549634
vn 0.766638 0.000000 -0.642079
vn 0.711880 0.000000 -0.702301
vn 0.712121 0.000000 -0.702057
vn 0.766638 0.000000 -0.642079
vn 0.796196 0.000000 -0.605039
vn 0.796196 0.000000 -0.605039
vn 0.897814 0.000000 -0.440375
vn 0.897814 0.000000 -0.440375
vn -0.935135 0.000000 0.354291
vn -0.836232 0.000000 0.548376
vn -0.836232 0.000000 0.548376
vn -0.935135 0.000000 0.354291
vn -0.990366 0.000000 0.138476
vn -0.990366 0.000000 0.138476
vn 0.792528 0.000000 0.609836
vn 0.709071 -0.000000 0.705137
vn 0.709034 -0.000000 0.705174
vn 0.792528 0.000000 0.609836
vn 0.756524 -0.000001 0.653966
vn 0.756524 -0.000001 0.653966
vn 0.885626 0.000000 0.464398
vn 0.885627 0.000000 0.464398
vn -0.830297 0.000000 -0.557321
vn -0.924728 0.000000 -0.380629
vn -0.924728 0.000000 -0.380629
vn -0.830297 0.000000 -0.557321
vn -0.979147 0.000000 -0.203154
vn -0.979147 0.000000 -0.203154
vn 0.989753 0.000000 -0.142794
vn 0.999915 0.000000 -0.013068
vn 0.999911 0.000000 -0.013380
vn 0.989752 0.000000 -0.142794
vn 0.996606 0.000000 -0.082319
vn 0.996606 0.000000 -0.082319
vn 0.947197 0.000000 -0.320652
vn 0.947197 0.000000 -0.320653
vn -0.980120 0.000000 0.198405
vn -0.922709 0.000000 0.385499
vn -0.922708 0.000000 0.385499
vn -0.980120 0.000000 0.198405
vn -0.818659 0.000000 0.574280
vn -0.818659 0.000000 0.574280
vn -0.063988 0.000000 0.997951
vn 0.010883 0.000000 0.999941
vn 0.010532 0.000000 0.999945
vn -0.063988 0.000000 0.997951
vn -0.132712 0.000000 0.991155
vn -0.132712 0.000000 0.991155
vn -0.317100 0.000000 0.948392
vn -0.317100 0.000000 0.948392
vn 0.378090 0.000000 -0.925769
vn 0.188194 0.000000 -0.982132
vn 0.188194 0.000000 -0.982132
vn 0.378090 0.000000 -0.925769
vn 0.549638 0.000000 -0.835403
vn 0.549639 0.000000 -0.835403
vn 0.612303 -0.000001 0.790623
vn 0.686228 -0.000000 0.727387
vn 0.686278 -0.000000 0.727339
vn 0.612303 -0.000001 0.790623
vn 0.605036 0.000000 0.796198
vn 0.605036 0.000000 0.796198
vn 0.440371 0.000000 0.897816
vn 0.440371 0.000000 0.897816
vn -0.330479 0.000000 -0.943813
vn -0.503724 0.000000 -0.863865
vn -0.503724 0.000000 -0.863865
vn -0.330479 0.000000 -0.943813
vn -0.138477 0.000000 -0.990366
vn -0.138477 0.000000 -0.990366
vn -0.609835 0.000000 0.792528
vn -0.705137 -0.000000 0.709071
vn -0.705174 -0.000000 0.709034
vn -0.609835 0.000000 0.792528
vn -0.653966 -0.000001 0.756524
vn -0.653966 -0.000001 0.756524
vn -0.464397 0.000000 0.885627
vn -0.464397 0.000000 0.885627
vn 0.557320 0.000000 -0.830298
vn 0.380632 0.000000 -0.924727
vn 0.380632 0.000000 -0.924727
vn 0.557320 0.000000 -0.830298
vn 0.203159 0.000000 -0.979146
vn 0.203159 0.000000 -0.979146
vn 0.142792 0.000000 0.989753
vn 0.013069 0.000000 0.999915
vn 0.013381 0.000000 0.999910
vn 0.142792 0.000000 0.989753
vn 0.082322 0.000000 0.996606
vn 0.082322 0.000000 0.996606
vn 0.320648 0.000000 0.947198
vn 0.320648 0.000000 0.947198
vn -0.198409 0.000000 -0.980119
vn -0.385499 0.000000 -0.922708
vn -0.385499 0.000000 -0.922708
vn -0.198409 0.000000 -0.980119
vn -0.574276 0.000000 -0.818662
vn -0.574276 0.000000 -0.818662
vn -0.997951 0.000000 -0.063979
vn -0.999941 0.000000 0.010885
vn -0.999945 0.000000 0.010533
vn -0.997951 0.000000 -0.063979
vn -0.991154 0.000000 -0.132714
vn -0.991154 0.000000 -0.132714
vn -0.948393 0.000000 -0.317098
vn -0.948393 0.000000 -0.317098
vn 0.925770 0.000000 0.378088
vn 0.982134 0.000000 0.188183
vn 0.982134 0.000000 0.188183
vn 0.925770 0.000000 0.378088
vn 0.835400 0.000000 0.549643
vn 0.835400 0.000000 0.549643
vn -0.780115 0.000000 0.625637
vn -0.719755 0.000000 0.694228
vn -0.719708 0.000000 0.694277
vn -0.780115 0.000000 0.625637
vn -0.796197 0.000000 0.605037
vn -0.796197 0.000000 0.605037
vn -0.897817 0.000000 0.440370
vn -0.897817 0.000000 0.440370
vn 0.941605 0.000000 -0.336719
vn 0.853752 0.000000 -0.520680
vn 0.853752 0.000000 -0.520680
vn 0.941605 0.000000 -0.336719
vn 0.990366 0.000000 -0.138477
vn 0.990366 0.000000 -0.138477
vn 0.319929 0.000000 -0.947442
vn 0.319929 0.000000 -0.947442
vn 0.319929 0.000000 -0.947442
vn 0.319929 0.000000 -0.947442
vn -0.962359 0.000000 0.271782
vn -0.962359 0.000000 0.271782
vn -0.962359 0.000000 0.271782
vn -0.962359 0.000000 0.271782
vn 0.732222 0.000000 0.681066
vn 0.754140 0.000000 0.656714
vn 0.754140 0.000000 0.656714
vn 0.732222 0.000000 0.681066
vn 0.793154 0.000000 0.609021
vn 0.825522 0.000000 0.564370
vn 0.825522 0.000000 0.564370
vn 0.793154 0.000000 0.609021
vn 0.839109 0.000000 -0.543964
vn 0.839109 0.000000 -0.543964
vn 0.839109 0.000000 -0.543964
vn 0.839109 0.000000 -0.543964
vn -0.829441 0.000000 -0.558594
vn -0.829441 0.000000 -0.558594
vn -0.829441 0.000000 -0.558594
vn -0.829441 0.000000 -0.558594
vn 0.016898 0.000000 0.999857
vn 0.144266 0.000000 0.989539
vn 0.144266 0.000000 0.989539
vn 0.016898 0.000000 0.999857
vn 0.200271 0.000000 0.979741
vn 0.286813 0.000000 0.957987
vn 0.286813 0.000000 0.957987
vn 0.200271 0.000000 0.979741
vn -0.524153 0.000000 -0.851624
vn -0.524153 0.000000 -0.851624
vn -0.524153 0.000000 -0.851624
vn -0.524153 0.000000 -0.851624
vn -0.533344 0.000000 0.845899
vn -0.533344 0.000000 0.845899
vn -0.533344 0.000000 0.845899
vn -0.533344 0.000000 0.845899
vn 0.976588 0.000000 -0.215120
vn 0.759283 0.000000 -0.650760
vn 0.759283 0.000000 -0.650760
vn 0.976588 0.000000 -0.215120
vn 0.944876 0.000000 0.327429
vn 0.944876 0.000000 0.327429
vn 0.944876 0.000000 0.327429
vn 0.944876 0.000000 0.327429
vn -0.267493 0.000000 -0.963560
vn -0.267493 0.000000 -0.963560
vn -0.267493 0.000000 -0.963560
vn -0.267493 0.000000 -0.963560
vn -0.681073 0.000000 0.732215
vn -0.656790 0.000000 0.754073
vn -0.656790 0.000000 0.754073
vn -0.681073 0.000000 0.732215
vn -0.608970 0.000000 0.793193
vn -0.564401 0.000000 0.825501
vn -0.564401 0.000000 0.825501
vn -0.608970 0.000000 0.793193
vn 0.511499 0.000000 0.859284
vn 0.511499 0.000000 0.859284
vn 0.511499 0.000000 0.859284
vn 0.511499 0.000000 0.859284
vn 0.547730 0.000000 -0.836655
vn 0.547730 0.000000 -0.836655
vn 0.547730 0.000000 -0.836655
vn 0.547730 0.000000 -0.836655
vn -0.827454 0.000000 -0.561533
vn -0.999769 0.000000 0.021479
vn -0.999769 0.000000 0.021479
vn -0.827455 0.000000 -0.561533
vn -0.997032 0.000000 0.076991
vn -0.976494 0.000000 0.215546
vn -0.976494 0.000000 0.215546
vn -0.997032 0.000000 0.076991
vn -0.321455 0.000000 0.946925
vn -0.321455 0.000000 0.946925
vn -0.321455 0.000000 0.946925
vn -0.321455 0.000000 0.946925
vn 0.963669 0.000000 -0.267099
vn 0.963669 0.000000 -0.267099
vn 0.963669 0.000000 -0.267099
vn 0.963669 0.000000 -0.267099
vn -0.650604 0.000000 -0.759417
vn -0.754099 0.000000 -0.656760
vn -0.754099 0.000000 -0.656760
vn -0.650604 0.000000 -0.759417
vn -0.793170 0.000000 -0.609000
vn -0.793170 0.000000 -0.609000
vn -0.852113 0.000000 0.523359
vn -0.852113 0.000000 0.523359
vn -0.852113 0.000000 0.523359
vn -0.852113 0.000000 0.523359
vn 0.843636 0.000000 0.536915
vn 0.843636 0.000000 0.536915
vn 0.843636 0.000000 0.536915
vn 0.843636 0.000000 0.536915
vn -0.215126 0.000000 -0.976586
vn -0.215126 0.000000 -0.976586
vn -0.946417 0.000000 -0.322946
vn -0.946417 0.000000 -0.322946
vn -0.946417 0.000000 -0.322946
vn -0.946417 0.000000 -0.322946
vn 0.268789 0.000000 0.963199
vn 0.268789 0.000000 0.963199
vn 0.268789 0.000000 0.963199
vn 0.268789 0.000000 0.963199
vn 0.656756 0.000000 -0.754103
vn 0.656756 0.000000 -0.754104
vn 0.608967 0.000000 -0.793196
vn 0.564281 0.000000 -0.825583
vn 0.564281 0.000000 -0.825583
vn 0.608967 0.000000 -0.793196
vn 0.984639 0.000000 -0.174604
vn 0.984639 0.000000 -0.174604
vn -0.174477 0.000000 -0.984661
vn -0.174477 0.000000 -0.984661
vn -0.689048 0.000000 -0.724716
vn -0.689048 0.000000 -0.724716
vn -0.689048 0.000000 -0.724716
vn -0.689048 0.000000 -0.724716
vn 0.008766 0.000000 -0.999962
vn 0.008766 0.000000 -0.999962
vn 0.008766 0.000000 -0.999962
vn 0.008766 0.000000 -0.999962
vn -0.999985 0.000000 -0.005435
vn -0.999985 0.000000 -0.005435
vn -0.999985 0.000000 -0.005435
vn -0.999985 0.000000 -0.005435
vn 0.728974 0.000000 -0.684541
vn 0.728974 0.000000 -0.684541
vn 0.728974 0.000000 -0.684541
vn 0.728974 0.000000 -0.684541
vn 0.999772 0.000000 0.021378
vn 0.999772 0.000000 0.021378
vn 0.999772 0.000000 0.021378
vn 0.999772 0.000000 0.021378
vn 0.686726 0.000000 0.726916
vn 0.686726 0.000000 0.726916
vn 0.686726 0.000000 0.726916
vn 0.686726 0.000000 0.726916
vn -0.007993 0.000000 0.999968
vn -0.007993 0.000000 0.999968
vn -0.007993 0.000000 0.999968
vn -0.007993 0.000000 0.999968
vn -0.726871 0.000000 0.686774
vn -0.726871 0.000000 0.686774
vn -0.726871 0.000000 0.686774
vn -0.726871 0.000000 0.686774
vn 0.008930 0.877077 -0.480267
vn 0.008930 0.877077 -0.480267
vn 0.008930 0.877077 -0.480267
vn -0.343716 0.876346 -0.337456
vn -0.343716 0.876346 -0.337456
vn -0.343716 0.876346 -0.337456
vn -0.426820 0.904303 -0.007869
vn -0.426820 0.904303 -0.007869
vn -0.426820 0.904303 -0.007869
vn 0.427091 0.904073 0.015656
vn 0.427091 0.904073 0.015656
vn 0.427091 0.904073 0.015656
vn 0.337457 0.876346 -0.343715
vn 0.337457 0.876346 -0.343715
vn 0.337457 0.876346 -0.343715
vn -0.007869 0.904303 0.426818
vn -0.007869 0.904303 0.426818
vn -0.007869 0.904303 0.426818
vn 0.343717 0.876346 0.337455
vn 0.343717 0.876346 0.337455
vn 0.343717 0.876346 0.337455
vn -0.337452 0.876347 0.343717
vn -0.337452 0.876347 0.343717
vn -0.337452 0.876347 0.343717
s 1
g textureEditorIsolateSelectSet Rug
usemtl lambert9SG
f 1/1/1 26/2/2 27/3/3 3/4/4
f 1/1/1 3/4/4 31/5/5 29/6/6
f 4/7/7 34/8/8 35/9/9 6/10/10
f 4/7/7 6/10/10 28/11/11 25/12/12
f 7/13/13 38/14/14 39/15/15 9/16/16
f 7/13/13 9/16/16 43/17/17 41/18/18
f 10/19/19 30/20/20 32/21/21 12/22/22
f 10/19/19 12/22/22 40/23/23 37/24/24
f 13/25/25 46/26/26 47/27/27 15/28/28
f 13/25/25 15/28/28 51/29/29 49/30/30
f 16/31/31 42/32/32 44/33/33 18/34/34
f 16/31/31 18/34/34 48/35/35 45/36/36
f 19/37/37 54/38/38 55/39/39 21/40/40
f 19/37/37 21/40/40 36/41/41 33/42/42
f 22/43/43 50/44/44 52/45/45 24/46/46
f 22/43/43 24/46/46 56/47/47 53/48/48
s off
f 26//49 25//50 176//51 175//52
f 25//53 28//54 177//55 176//56
f 28//57 27//58 178//59 177//60
f 27//61 26//62 175//63 178//64
f 30//65 29//66 180//67 179//68
f 29//69 31//70 181//71 180//72
f 31//73 32//74 182//75 181//76
f 32//77 30//78 179//79 182//80
f 34//81 33//82 184//83 183//84
f 33//85 36//86 185//87 184//88
f 36//89 35//90 186//91 185//92
f 35//93 34//94 183//95 186//96
f 38//97 37//98 188//99 187//100
f 37//101 40//102 189//103 188//104
f 40//105 39//106 190//107 189//108
f 39//109 38//110 187//111 190//112
f 42//113 41//114 192//115 191//116
f 41//117 43//118 193//119 192//120
f 43//121 44//122 194//123 193//124
f 44//125 42//126 191//127 194//128
f 46//129 45//130 196//131 195//132
f 45//133 48//134 197//135 196//136
f 48//137 47//138 198//139 197//140
f 47//141 46//142 195//143 198//144
f 50//145 49//146 200//147 199//148
f 49//149 51//150 201//151 200//152
f 51//153 52//154 202//155 201//156
f 52//157 50//158 199//159 202//160
f 54//161 53//162 204//163 203//164
f 53//165 56//166 205//167 204//168
f 56//169 55//170 206//171 205//172
f 55//173 54//174 203//175 206//176
s 9
f 207/49/177 208/238/178 215/235/179 214/50/180
f 208/238/178 207/49/177 209/51/181 210/237/182
f 210/237/182 209/51/181 212/52/183 211/236/184
s off
f 211/335/185 213/336/186 468/337/187 467/338/188
s 10
f 213/53/189 212/52/190 296/54/191 297/214/192
s 11
f 214/50/193 215/235/194 240/229/195 239/55/196
s 12
f 216/56/197 217/468/198 301/449/199 300/57/200
s 13
f 217/468/201 216/56/202 218/58/203 219/467/204
f 219/467/204 218/58/203 220/59/205 221/466/206
s off
f 221/466/207 220/59/208 403/60/209 404/422/210
s 14
f 222/61/211 223/234/212 230/231/213 229/62/214
f 223/234/212 222/61/211 224/63/215 225/233/216
f 225/233/216 224/63/215 227/64/217 226/232/218
s off
f 226/275/219 228/279/220 470/280/221 469/276/222
s 11
f 228/65/223 227/64/224 237/66/225 238/230/226
s 15
f 229/62/227 230/231/228 251/227/229 250/67/230
s 16
f 231/68/231 232/465/232 242/462/233 241/69/234
s 17
f 232/465/235 231/68/236 233/70/237 234/464/238
f 234/464/238 233/70/237 235/71/239 236/463/240
f 236/463/240 235/71/239 391/72/241 392/428/242
s 11
f 238/230/226 237/66/225 239/55/196 240/229/195
s 16
f 241/69/234 242/462/233 244/461/243 243/73/244
f 243/73/244 244/461/243 394/427/245 393/74/246
s 15
f 245/75/247 246/228/248 249/226/249 248/76/250
f 246/228/248 245/75/247 250/67/230 251/227/229
s off
f 247/239/251 249/240/252 472/241/253 471/242/254
s 18
f 248/76/255 247/225/256 353/199/257 352/77/258
s 19
f 252/78/259 253/460/260 255/459/261 254/79/262
s 20
f 253/460/263 252/78/264 356/80/265 357/437/266
s 19
f 254/79/262 255/459/261 257/458/267 256/81/268
f 256/81/268 257/458/267 416/416/269 415/82/270
s 21
f 258/83/271 259/224/272 266/221/273 265/84/274
f 259/224/272 258/83/271 260/85/275 261/223/276
f 261/223/276 260/85/275 263/86/277 262/222/278
s off
f 262/251/279 264/252/280 474/253/281 473/254/282
s 22
f 264/87/283 263/86/284 342/88/285 343/202/286
s 23
f 265/84/287 266/221/288 291/215/289 290/89/290
s 24
f 267/90/291 268/457/292 347/439/293 346/91/294
s 25
f 268/457/295 267/90/296 269/92/297 270/456/298
f 270/456/298 269/92/297 271/93/299 272/455/300
f 272/455/300 271/93/299 431/94/301 432/408/302
s 26
f 273/95/303 274/220/304 281/217/305 280/96/306
f 274/220/304 273/95/303 275/97/307 276/219/308
f 276/219/308 275/97/307 278/98/309 277/218/310
s off
f 277/287/311 279/281/312 476/284/313 475/288/314
s 23
f 279/99/315 278/98/316 288/100/317 289/216/318
s 10
f 280/96/319 281/217/320 299/213/321 298/101/322
s 27
f 282/102/323 283/454/324 293/451/325 292/103/326
s 28
f 283/454/327 282/102/328 284/104/329 285/453/330
f 285/453/330 284/104/329 286/105/331 287/452/332
f 287/452/332 286/105/331 421/106/333 422/413/334
s 23
f 289/216/318 288/100/317 290/89/290 291/215/289
s 27
f 292/103/326 293/451/325 295/450/335 294/107/336
f 294/107/336 295/450/335 424/412/337 423/108/338
s 10
f 297/214/192 296/54/191 298/101/322 299/213/321
s 12
f 300/57/200 301/449/199 303/448/339 302/109/340
f 302/109/340 303/448/339 406/421/341 405/110/342
s 29
f 304/111/343 305/212/344 312/209/345 311/112/346
f 305/212/344 304/111/343 306/113/347 307/211/348
f 307/211/348 306/113/347 309/114/349 308/210/350
s off
f 308/339/351 310/340/352 478/341/353 477/342/354
s 30
f 310/115/355 309/114/356 383/116/357 384/191/358
s 31
f 311/112/359 312/209/360 337/203/361 336/117/362
s 32
f 313/118/363 314/447/364 388/430/365 387/119/366
s 33
f 314/447/367 313/118/368 315/120/369 316/446/370
f 316/446/370 315/120/369 317/121/371 318/445/372
s off
f 318/445/373 317/121/374 451/122/375 452/398/376
s 34
f 319/123/377 320/208/378 327/205/379 326/124/380
f 320/208/378 319/123/377 321/125/381 322/207/382
f 322/207/382 321/125/381 324/126/383 323/206/384
s off
f 323/311/385 325/315/386 480/316/387 479/312/388
s 31
f 325/127/389 324/126/390 334/128/391 335/204/392
s 22
f 326/124/393 327/205/394 345/201/395 344/129/396
s 35
f 328/130/397 329/444/398 339/441/399 338/131/400
s 36
f 329/444/401 328/130/402 330/132/403 331/443/404
f 331/443/404 330/132/403 332/133/405 333/442/406
f 333/442/406 332/133/405 441/134/407 442/403/408
s 31
f 335/204/392 334/128/391 336/117/362 337/203/361
s 35
f 338/131/400 339/441/399 341/440/409 340/135/410
f 340/135/410 341/440/409 444/402/411 443/136/412
s 22
f 343/202/286 342/88/285 344/129/396 345/201/395
s 24
f 346/91/294 347/439/293 349/438/413 348/137/414
f 348/137/414 349/438/413 434/407/415 433/138/416
s 18
f 350/139/417 351/200/418 355/198/419 354/140/420
f 351/200/418 350/139/417 352/77/258 353/199/257
s 37
f 354/140/421 355/198/422 378/192/423 377/141/424
s 20
f 357/437/266 356/80/265 358/142/425 359/436/426
s off
f 359/436/427 358/142/428 413/143/429 414/417/430
s 38
f 360/144/431 361/197/432 368/194/433 367/145/434
f 361/197/432 360/144/431 362/146/435 363/196/436
f 363/196/436 362/146/435 365/147/437 364/195/438
s off
f 364/323/439 366/317/440 482/320/441 481/324/442
s 37
f 366/148/443 365/147/444 375/149/445 376/193/446
s 30
f 367/145/447 368/194/448 386/190/449 385/150/450
s 39
f 369/151/451 370/435/452 380/432/453 379/152/454
s 40
f 370/435/455 369/151/456 371/153/457 372/434/458
f 372/434/458 371/153/457 373/154/459 374/433/460
f 374/433/460 373/154/459 457/155/461 458/395/462
s 37
f 376/193/446 375/149/445 377/141/424 378/192/423
s 39
f 379/152/454 380/432/453 382/431/463 381/156/464
f 381/156/464 382/431/463 460/394/465 459/157/466
s 30
f 384/191/358 383/116/357 385/150/450 386/190/449
s 32
f 387/119/366 388/430/365 390/429/467 389/158/468
f 389/158/468 390/429/467 454/397/469 453/159/470
s off
f 392/428/471 391/72/472 393/74/473 394/427/474
s 41
f 395/160/475 396/426/476 412/418/477 411/161/478
f 396/426/476 395/160/475 397/162/479 398/425/480
f 398/425/480 397/162/479 401/163/481 402/424/482
f 399/164/483 400/423/484 402/424/482 401/163/481
s 42
f 400/423/485 399/164/486 419/165/487 420/415/488
s off
f 404/422/489 403/60/490 405/110/491 406/421/492
s 41
f 407/166/493 408/420/494 430/409/495 429/167/496
f 408/420/494 407/166/493 409/168/497 410/419/498
f 410/419/498 409/168/497 411/161/478 412/418/477
s off
f 414/417/499 413/143/500 415/82/501 416/416/502
s 42
f 417/169/503 418/414/504 420/415/488 419/165/487
f 418/414/504 417/169/503 461/170/505 462/393/506
s off
f 422/413/507 421/106/508 423/108/509 424/412/510
s 41
f 425/171/511 426/411/512 440/404/513 439/172/514
f 426/411/512 425/171/511 427/173/515 428/410/516
f 428/410/516 427/173/515 429/167/496 430/409/495
s off
f 432/408/517 431/94/518 433/138/519 434/407/520
s 41
f 435/174/521 436/406/522 450/399/523 449/175/524
f 436/406/522 435/174/521 437/176/525 438/405/526
f 438/405/526 437/176/525 439/172/514 440/404/513
s off
f 442/403/527 441/134/528 443/136/529 444/402/530
s 41
f 445/177/531 446/401/532 456/396/533 455/178/534
f 446/401/532 445/177/531 447/179/535 448/400/536
f 448/400/536 447/179/535 449/175/524 450/399/523
s off
f 452/398/537 451/122/538 453/159/539 454/397/540
s 41
f 455/178/534 456/396/533 464/391/541 463/180/542
s off
f 458/395/543 457/155/544 459/157/545 460/394/546
s 42
f 462/393/506 461/170/505 465/181/547 466/392/548
f 463/180/549 464/391/550 466/392/548 465/181/547
s 1
f 207/49/551 216/56/552 212/52/553 209/51/554
f 216/56/552 207/49/551 214/50/555 218/58/556
f 218/58/556 214/50/555 2/182/557 220/59/558
f 222/61/559 231/68/560 227/64/561 224/63/562
f 231/68/560 222/61/559 229/62/563 233/70/564
f 233/70/564 229/62/563 5/183/565 235/71/566
f 239/55/567 237/66/568 227/64/561 231/68/560
f 231/68/560 241/69/569 214/50/555 239/55/567
f 241/69/569 243/73/570 2/182/557 214/50/555
s off
f 250/67/571 245/75/572 248/76/573 252/78/574
s 1
f 252/78/575 254/79/576 229/62/563 250/67/577
f 254/79/576 256/81/578 5/183/565 229/62/563
f 258/83/579 267/90/580 263/86/581 260/85/582
f 267/90/580 258/83/579 265/84/583 269/92/584
f 269/92/584 265/84/583 8/184/585 271/93/586
f 273/95/587 282/102/588 278/98/589 275/97/590
f 282/102/588 273/95/587 280/96/591 284/104/592
f 284/104/592 280/96/591 11/185/593 286/105/594
f 290/89/595 288/100/596 278/98/589 282/102/588
f 282/102/588 292/103/597 265/84/583 290/89/595
f 292/103/597 294/107/598 8/184/585 265/84/583
f 298/101/599 296/54/600 212/52/553 216/56/552
f 216/56/552 300/57/601 280/96/591 298/101/599
f 300/57/601 302/109/602 11/185/593 280/96/591
f 304/111/603 313/118/604 309/114/605 306/113/606
f 313/118/604 304/111/603 311/112/607 315/120/608
f 315/120/608 311/112/607 14/186/609 317/121/610
f 319/123/611 328/130/612 324/126/613 321/125/614
f 328/130/612 319/123/611 326/124/615 330/132/616
f 330/132/616 326/124/615 17/187/617 332/133/618
f 336/117/619 334/128/620 324/126/613 328/130/612
f 328/130/612 338/131/621 311/112/607 336/117/619
f 338/131/621 340/135/622 14/186/609 311/112/607
s off
f 344/129/623 342/88/624 263/86/625 267/90/626
s 1
f 267/90/627 346/91/628 326/124/615 344/129/629
f 346/91/628 348/137/630 17/187/617 326/124/615
f 350/139/631 252/78/632 248/76/633 352/77/634
f 252/78/632 350/139/631 354/140/635 356/80/636
f 356/80/636 354/140/635 20/188/637 358/142/638
f 360/144/639 369/151/640 365/147/641 362/146/642
f 369/151/640 360/144/639 367/145/643 371/153/644
f 371/153/644 367/145/643 23/189/645 373/154/646
f 377/141/647 375/149/648 365/147/641 369/151/640
f 369/151/640 379/152/649 354/140/635 377/141/647
f 379/152/649 381/156/650 20/188/637 354/140/635
s off
f 385/150/651 383/116/652 309/114/653 313/118/654
s 1
f 313/118/655 387/119/656 367/145/643 385/150/657
f 387/119/656 389/158/658 23/189/645 367/145/643
f 25/12/12 391/72/659 235/71/566 5/183/565 4/7/7
f 393/74/660 26/2/2 1/1/1 2/182/557 243/73/570
f 29/6/6 403/60/661 220/59/558 2/182/557 1/1/1
f 405/110/662 30/20/20 10/19/19 11/185/593 302/109/602
f 33/42/42 413/143/663 358/142/638 20/188/637 19/37/37
f 415/82/664 34/8/8 4/7/7 5/183/565 256/81/578
f 37/24/24 421/106/665 286/105/594 11/185/593 10/19/19
f 423/108/666 38/14/14 7/13/13 8/184/585 294/107/598
f 41/18/18 431/94/667 271/93/586 8/184/585 7/13/13
f 433/138/668 42/32/32 16/31/31 17/187/617 348/137/630
f 45/36/36 441/134/669 332/133/618 17/187/617 16/31/31
f 443/136/670 46/26/26 13/25/25 14/186/609 340/135/622
f 49/30/30 451/122/671 317/121/610 14/186/609 13/25/25
f 453/159/672 50/44/44 22/43/43 23/189/645 389/158/658
f 53/48/48 457/155/673 373/154/646 23/189/645 22/43/43
f 459/157/674 54/38/38 19/37/37 20/188/637 381/156/650
f 27/3/3 28/11/11 401/163/675 397/162/676
f 32/21/21 31/5/5 411/161/677 409/168/678
f 35/9/9 36/41/41 419/165/679 399/164/680
f 39/15/15 40/23/23 429/167/681 427/173/682
f 44/33/33 43/17/17 439/172/683 437/176/684
f 47/27/27 48/35/35 449/175/685 447/179/686
f 52/45/45 51/29/29 455/178/687 463/180/688
f 55/39/39 56/47/47 465/181/689 461/170/690
f 3/4/4 27/3/3 397/162/676 395/160/691
f 3/4/4 395/160/691 411/161/677 31/5/5
f 6/10/10 35/9/9 399/164/680
f 6/10/10 399/164/680 401/163/675 28/11/11
f 9/16/16 39/15/15 427/173/682 425/171/692
f 9/16/16 425/171/692 439/172/683 43/17/17
f 12/22/22 32/21/21 409/168/678 407/166/693
f 12/22/22 407/166/693 429/167/681 40/23/23
f 15/28/28 47/27/27 447/179/686 445/177/694
f 15/28/28 445/177/694 455/178/687 51/29/29
f 18/34/34 44/33/33 437/176/684 435/174/695
f 18/34/34 435/174/695 449/175/685 48/35/35
f 21/40/40 55/39/39 461/170/690 417/169/696
f 21/40/40 417/169/696 419/165/679 36/41/41
f 24/46/46 52/45/45 463/180/688
f 24/46/46 463/180/688 465/181/689 56/47/47
f 391/72/659 25/12/12 26/2/2 393/74/660
f 403/60/661 29/6/6 30/20/20 405/110/662
f 413/143/663 33/42/42 34/8/8 415/82/664
f 421/106/665 37/24/24 38/14/14 423/108/666
f 431/94/667 41/18/18 42/32/32 433/138/668
f 441/134/669 45/36/36 46/26/26 443/136/670
f 451/122/671 49/30/30 50/44/44 453/159/672
f 457/155/673 53/48/48 54/38/38 459/157/674
s 55
f 208/264/697 210/267/698 58/268/699 57/265/700
f 210/267/698 211/269/701 467/270/702 58/268/699
f 215/263/703 208/264/697 57/265/700 59/266/704
s 56
f 217/475/705 219/469/706 61/472/707 60/476/708
f 219/469/706 221/470/709 62/471/710 61/472/707
s 57
f 223/271/711 225/272/712 64/273/713 63/274/714
f 225/272/712 226/275/715 469/276/716 64/273/713
f 230/277/717 223/271/711 63/274/714 65/278/718
s 58
f 232/477/719 234/478/720 67/479/721 66/480/722
f 234/478/720 236/481/723 68/482/724 67/479/721
s 59
f 228/343/725 238/344/726 69/345/727 470/346/728
f 238/344/726 240/347/729 70/348/730 69/345/727
f 240/347/729 215/349/731 59/350/732 70/348/730
s 60
f 242/611/733 232/612/734 66/613/735 71/614/736
f 244/526/737 242/529/733 71/530/736 72/527/738
s 61
f 249/240/739 246/243/740 73/244/741 472/241/742
f 246/243/740 251/247/743 74/248/744 73/244/741
f 251/351/743 230/352/745 65/353/746 74/354/744
s 62
f 255/616/747 253/619/748 75/620/749 76/617/750
f 257/615/751 255/616/747 76/617/750 77/618/752
s 63
f 259/261/753 261/257/754 79/258/755 78/262/756
f 261/257/754 262/251/757 473/254/758 79/258/755
f 266/355/759 259/356/753 78/357/756 80/358/760
s 64
f 268/625/761 270/621/762 82/624/763 81/626/764
f 270/621/762 272/622/765 83/623/766 82/624/763
s 65
f 274/359/767 276/360/768 85/361/769 84/362/770
f 276/360/768 277/363/771 475/364/772 85/361/769
f 281/365/773 274/359/767 84/362/770 86/366/774
s 66
f 283/627/775 285/628/776 88/629/777 87/630/778
f 285/557/776 287/551/779 89/554/780 88/558/777
s 67
f 279/281/781 289/282/782 90/283/783 476/284/784
f 289/282/782 291/285/785 91/286/786 90/283/783
f 291/285/785 266/289/787 80/290/788 91/286/786
s 68
f 293/483/789 283/484/790 87/485/791 92/486/792
f 295/487/793 293/483/789 92/486/792 93/488/794
s 69
f 213/297/795 297/295/796 94/296/797 468/298/798
f 297/295/796 299/291/799 95/294/800 94/296/797
f 299/291/799 281/292/801 86/293/802 95/294/800
s 70
f 301/490/803 217/493/804 60/494/805 96/491/806
f 303/489/807 301/490/803 96/491/806 97/492/808
s 71
f 305/300/809 307/303/810 99/304/811 98/301/812
f 307/303/810 308/305/813 477/306/814 99/304/811
f 312/299/815 305/300/809 98/301/812 100/302/816
s 72
f 314/503/817 316/497/818 102/500/819 101/504/820
f 316/497/818 318/498/821 103/499/822 102/500/819
s 73
f 320/307/823 322/308/824 105/309/825 104/310/826
f 322/308/824 323/311/827 479/312/828 105/309/825
f 327/313/829 320/307/823 104/310/826 106/314/830
s 74
f 329/505/831 331/506/832 108/507/833 107/508/834
f 331/506/832 333/509/835 109/510/836 108/507/833
s 75
f 325/367/837 335/368/838 110/369/839 480/370/840
f 335/368/838 337/371/841 111/372/842 110/369/839
f 337/371/841 312/373/843 100/374/844 111/372/842
s 76
f 339/631/845 329/632/846 107/633/847 112/634/848
f 341/580/849 339/583/845 112/584/848 113/581/850
s 77
f 264/252/851 343/255/852 114/256/853 474/253/854
f 343/255/852 345/259/855 115/260/856 114/256/853
f 345/375/855 327/376/857 106/377/858 115/378/856
s 78
f 347/636/859 268/639/860 81/640/861 116/637/862
f 349/635/863 347/636/859 116/637/862 117/638/864
s 79
f 351/249/865 353/245/866 119/246/867 118/250/868
f 353/245/866 247/239/869 471/242/870 119/246/867
f 355/379/871 351/380/865 118/381/868 120/382/872
s 80
f 253/645/873 357/641/874 121/644/875 75/646/876
f 357/641/874 359/642/877 122/643/878 121/644/875
s 81
f 361/383/879 363/384/880 124/385/881 123/386/882
f 363/384/880 364/387/883 481/388/884 124/385/881
f 368/389/885 361/383/879 123/386/882 125/390/886
s 82
f 370/647/887 372/648/888 127/649/889 126/650/890
f 372/593/888 374/587/891 128/590/892 127/594/889
s 83
f 366/317/893 376/318/894 129/319/895 482/320/896
f 376/318/894 378/321/897 130/322/898 129/319/895
f 378/321/897 355/325/899 120/326/900 130/322/898
s 84
f 380/511/901 370/512/902 126/513/903 131/514/904
f 382/515/905 380/511/901 131/514/904 132/516/906
s 85
f 310/333/907 384/331/908 133/332/909 478/334/910
f 384/331/908 386/327/911 134/330/912 133/332/909
f 386/327/911 368/328/913 125/329/914 134/330/912
s 86
f 388/518/915 314/521/916 101/522/917 135/519/918
f 390/517/919 388/518/915 135/519/918 136/520/920
s off
f 236/651/921 392/652/922 137/653/923 68/654/924
f 394/525/925 244/526/926 72/527/927 138/528/928
s 87
f 396/549/929 398/547/930 139/548/931 140/550/932
f 402/543/933 400/539/934 142/540/935 141/544/936
s off
f 221/470/937 404/473/938 143/474/939 62/471/940
f 406/495/941 303/489/942 97/492/943 144/496/944
s 88
f 408/655/945 410/656/946 145/657/947 146/658/948
f 412/659/949 396/661/950 140/662/951 147/660/952
s off
f 359/601/953 414/595/954 148/598/955 122/602/956
f 416/596/957 257/599/958 77/600/959 149/597/960
s 89
f 420/533/961 418/534/962 151/535/963 150/536/964
s off
f 287/551/965 422/552/966 152/553/967 89/554/968
f 424/663/969 295/664/970 93/665/971 153/666/972
s 90
f 426/567/973 428/571/974 154/572/975 155/568/976
f 430/575/977 408/577/978 146/578/979 156/576/980
s off
f 272/609/981 432/603/982 157/606/983 83/610/984
f 434/604/985 349/607/986 117/608/987 158/605/988
s 91
f 436/559/989 438/560/990 159/561/991 160/562/992
f 440/563/993 426/567/994 155/568/995 161/564/996
s off
f 333/667/997 442/668/998 162/669/999 109/670/1000
f 444/579/1001 341/580/1002 113/581/1003 163/582/1004
s 91
f 446/573/1005 448/569/1006 164/570/1007 165/574/1008
f 450/565/1009 436/559/989 160/562/992 166/566/1010
s off
f 318/498/1011 452/501/1012 167/502/1013 103/499/1014
f 454/523/1015 390/517/1016 136/520/1017 168/524/1018
s 91
f 456/671/1019 446/672/1005 165/673/1008 169/674/1020
s off
f 374/587/1021 458/588/1022 170/589/1023 128/590/1024
f 460/677/1025 382/678/1026 132/679/1027 171/680/1028
s 89
f 418/534/962 462/537/1029 172/538/1030 151/535/963
f 466/541/1031 464/545/1032 174/546/1033 173/542/1034
s 87
f 398/547/930 402/543/933 141/544/936 139/548/931
s 88
f 410/656/946 412/659/949 147/660/952 145/657/947
s 89
f 400/539/1035 420/533/961 150/536/964 142/540/1036
s 90
f 428/571/974 430/575/977 156/576/980 154/572/975
s 91
f 438/560/990 440/563/993 161/564/996 159/561/991
f 448/569/1006 450/565/1009 166/566/1010 164/570/1007
f 464/675/1037 456/671/1019 169/674/1020 174/676/1038
s 89
f 462/537/1029 466/541/1031 173/542/1034 172/538/1030
s off
f 392/531/1039 394/525/1040 138/528/1041 137/532/1042
f 404/681/1043 406/682/1044 144/683/1045 143/684/1046
f 414/595/1047 416/596/1048 149/597/1049 148/598/1050
f 422/552/1051 424/555/1052 153/556/1053 152/553/1054
f 432/603/1055 434/604/1056 158/605/1057 157/606/1058
f 442/585/1059 444/579/1060 163/582/1061 162/586/1062
f 452/685/1063 454/686/1064 168/687/1065 167/688/1066
f 458/588/1067 460/591/1068 171/592/1069 170/589/1070
f 211/236/1071 212/52/1072 213/53/1073
f 226/232/1074 227/64/1075 228/65/1076
f 247/225/1077 248/76/1078 249/226/1079
f 262/222/1080 263/86/1081 264/87/1082
f 277/218/1083 278/98/1084 279/99/1085
f 308/210/1086 309/114/1087 310/115/1088
f 323/206/1089 324/126/1090 325/127/1091
f 364/195/1092 365/147/1093 366/148/1094
g default
v 2.592035 1.058867 -1.535418
v 2.633079 1.212681 -1.535418
v 2.652251 1.192145 -1.584754
v 2.611119 1.038684 -1.584754
v 2.633152 1.969586 -1.535418
v 2.592127 2.123411 -1.535418
v 2.480018 2.236017 -1.535418
v 2.326873 2.277229 -1.535418
v 2.345230 2.296953 -1.584754
v 2.498742 2.255833 -1.584754
v 2.611119 2.143492 -1.584754
v 2.652251 1.990031 -1.584754
v 0.545538 2.296953 -1.584754
v 0.585711 2.273457 -2.876152
v 2.612080 1.966534 -2.876152
v 2.570947 2.119996 -2.876152
v 2.458570 2.232337 -2.876152
v 2.305059 2.273457 -2.876152
v 2.570947 1.062181 -2.876152
v 2.612080 1.215642 -2.876152
v 2.431676 1.305897 -1.549532
v 2.431676 1.305897 -1.549532
v 2.299025 1.075199 -1.549532
v 2.396108 1.172703 -1.549532
v 2.396108 1.172703 -1.549532
v 2.166705 2.142971 -1.549532
v 2.166705 2.142971 -1.549532
v 2.431878 1.876483 -1.549532
v 2.431878 1.876483 -1.549532
v 2.396382 2.009735 -1.549532
v 2.396382 2.009735 -1.549532
v 2.299315 2.107282 -1.549532
v 2.299315 2.107282 -1.549532
v 0.724345 2.142684 -1.549532
v 2.479926 0.946267 -1.535418
v 2.498742 0.926343 -1.584754
v 2.590744 1.946522 -2.924593
v 2.549535 2.099648 -2.924593
v 2.436918 2.211747 -2.924593
v 2.283078 2.252778 -2.924593
v 2.436821 0.970541 -2.924594
v 2.549443 1.082626 -2.924594
v 2.458570 0.949839 -2.876152
v 2.590674 1.235736 -2.924594
v 0.607689 2.252778 -2.924593
v 0.410849 2.235909 -1.535418
v 0.563991 2.277130 -1.535418
v 0.392028 2.255833 -1.584754
v 0.453842 2.211748 -2.924593
v 0.432201 2.232337 -2.876152
vt 0.197764 0.402779
vt 0.197545 0.383141
vt 0.203970 0.381815
vt 0.204014 0.400513
vt 0.196124 0.363946
vt 0.203136 0.362986
vt 0.202293 0.552367
vt 0.201442 0.532577
vt 0.208009 0.531782
vt 0.208519 0.550264
vt 0.200644 0.512742
vt 0.207143 0.513295
vt 0.199754 0.492879
vt 0.206130 0.494757
vt 0.365143 0.487418
vt 0.365727 0.507221
vt 0.359180 0.508518
vt 0.358889 0.489654
vt 0.367627 0.526492
vt 0.360840 0.527400
vt 0.367458 0.529219
vt 0.367768 0.548571
vt 0.361398 0.546407
vt 0.364749 0.363558
vt 0.363478 0.382697
vt 0.356878 0.381629
vt 0.357933 0.362916
vt 0.363632 0.402443
vt 0.357274 0.400426
vt 0.377259 0.748374
vt 0.371132 0.751165
vt 0.217626 0.762540
vt 0.174053 0.414466
vt 0.175589 0.482352
vt 0.211214 0.760716
vt 0.194361 0.742294
vt 0.187108 0.571818
vt 0.171812 0.407357
vt 0.171641 0.390937
vt 0.171200 0.378576
vt 0.169665 0.362290
vt 0.182160 0.566920
vt 0.181839 0.550626
vt 0.175565 0.537550
vt 0.174952 0.521147
vt 0.174442 0.506576
vt 0.173505 0.490157
vt 0.211507 0.779813
vt 0.218147 0.781346
vt 0.378880 0.767519
vt 0.372472 0.769996
vn 0.927827 -0.029149 0.371869
vn 0.773393 -0.423501 0.471709
vn 0.865410 -0.500800 -0.016246
vn 0.998803 -0.045467 -0.018036
vn 0.617843 -0.616595 0.487935
vn 0.617843 -0.616595 0.487935
vn 0.014231 0.926269 0.376594
vn 0.428158 0.770277 0.472603
vn 0.502940 0.864241 -0.011784
vn 0.022447 0.999733 -0.005489
vn 0.774189 0.423971 0.469979
vn 0.865412 0.500796 -0.016329
vn 0.927907 0.029103 0.371674
vn 0.998803 0.045463 -0.018043
vn 0.909702 0.030680 -0.414126
vn 0.753000 0.417289 -0.508783
vn 0.864305 0.500009 -0.054480
vn 0.998037 0.044192 -0.044376
vn 0.413206 0.757161 -0.505933
vn 0.497558 0.865998 -0.049833
vn 0.013732 0.917392 -0.397748
vn 0.021125 0.999317 -0.030335
vn 0.601285 -0.602824 -0.524461
vn 0.752155 -0.416819 -0.510416
vn 0.864299 -0.500011 -0.054561
vn 0.705852 -0.706137 -0.056069
vn 0.909611 -0.030730 -0.414323
vn 0.998037 -0.044196 -0.044385
vn -0.013732 0.917393 -0.397746
vn -0.021125 0.999317 -0.030336
vn -0.022450 0.999733 -0.005492
vn -0.069929 0.000014 0.997552
vn -0.069929 0.000014 0.997552
vn -0.069929 0.000014 0.997552
vn -0.069929 0.000014 0.997552
vn -0.014262 0.926222 0.376708
vn 0.000013 -0.104478 0.994527
vn 0.000013 -0.104478 0.994527
vn 0.000013 -0.104478 0.994527
vn 0.000013 -0.104478 0.994527
vn -0.062240 0.016613 0.997923
vn -0.062240 0.016613 0.997923
vn -0.062240 0.016613 0.997923
vn -0.062240 0.016613 0.997923
vn -0.045541 0.045344 0.997933
vn -0.045541 0.045344 0.997933
vn -0.045541 0.045344 0.997933
vn -0.045541 0.045344 0.997933
vn -0.021343 -0.079309 0.996622
vn -0.021343 -0.079309 0.996622
vn -0.021343 -0.079309 0.996622
vn -0.021343 -0.079309 0.996622
vn -0.045602 -0.045390 0.997928
vn -0.045602 -0.045390 0.997928
vn -0.045602 -0.045390 0.997928
vn -0.045602 -0.045390 0.997928
vn -0.062303 -0.016607 0.997919
vn -0.062303 -0.016607 0.997919
vn -0.062303 -0.016607 0.997919
vn -0.062303 -0.016607 0.997919
vn -0.233154 0.868293 0.437844
vn -0.258752 0.965900 -0.009229
vn -0.228364 0.854400 -0.466745
vn -0.258517 0.965161 -0.040419
vn 0.706564 -0.706791 -0.034839
s 1
g textureEditorIsolateSelectSet polySurface1 Sink1
usemtl lambert9SG
f 484/689/1095 483/690/1096 486/691/1097 485/692/1098
f 483/690/1096 517/693/1099 518/694/1100 486/691/1097
f 490/695/1101 489/696/1102 492/697/1103 491/698/1104
f 489/696/1102 488/699/1105 493/700/1106 492/697/1103
f 488/699/1105 487/701/1107 494/702/1108 493/700/1106
f 519/703/1109 520/704/1110 498/705/1111 497/706/1112
f 520/704/1110 521/707/1113 499/708/1114 498/705/1111
f 521/709/1113 522/710/1115 500/711/1116 499/708/1114
f 523/712/1117 524/713/1118 501/714/1119 525/715/1120
f 524/713/1118 526/716/1121 502/717/1122 501/714/1119
f 527/718/1123 496/719/1124 500/711/1116 522/710/1115
f 495/720/1125 491/698/1104 500/711/1116 496/719/1124
f 485/692/1098 502/717/1122 497/706/1112 494/702/1108
s off
f 504/721/1126 484/689/1127 487/701/1128 511/722/1129
s 1
f 484/689/1095 485/692/1098 494/702/1108 487/701/1107
f 495/720/1125 529/723/1130 490/695/1101 491/698/1104
s off
f 529/723/1131 516/724/1132 509/725/1133 490/695/1134
s 1
f 519/703/1109 497/706/1112 502/717/1122 526/716/1121
s off
f 503/726/1135 506/727/1136 483/690/1137 484/689/1138
f 507/728/1139 505/729/1140 517/693/1141 483/690/1142
f 508/730/1143 514/731/1144 489/696/1145 490/695/1146
f 515/732/1147 512/733/1148 488/699/1149 489/696/1150
f 513/734/1151 510/735/1152 487/701/1153 488/699/1154
s 1
f 528/736/1155 529/723/1130 495/720/1125 530/737/1156
f 527/718/1123 531/738/1157 532/739/1158 496/719/1124
f 530/737/1156 495/720/1125 496/719/1124 532/739/1158
f 491/698/1104 492/697/1103 499/708/1114 500/711/1116
f 492/697/1103 493/700/1106 498/705/1111 499/708/1114
f 493/700/1106 494/702/1108 497/706/1112 498/705/1111
f 485/692/1098 486/691/1097 501/714/1119 502/717/1122
f 486/691/1097 518/694/1159 525/715/1120 501/714/1119
g default
v -2.960066 1.584038 0.467634
v -2.930689 1.571869 0.467634
v -2.930689 1.584038 0.497011
v -2.930689 1.613414 0.509179
v -2.960066 1.613414 0.497011
v -2.972234 1.613414 0.467634
v -0.464131 1.584038 0.467634
v -0.451963 1.613414 0.467634
v -0.464131 1.613414 0.497011
v -0.493508 1.613414 0.509179
v -0.493508 1.584038 0.497011
v -0.493508 1.571869 0.467634
v -2.960066 1.725898 0.467634
v -2.972234 1.696521 0.467634
v -2.960066 1.696521 0.497011
v -2.930689 1.696521 0.509179
v -2.930689 1.725898 0.497011
v -2.930689 1.738066 0.467634
v -0.464131 1.725898 0.467634
v -0.493508 1.738066 0.467634
v -0.493508 1.725898 0.497011
v -0.493508 1.696521 0.509179
v -0.464131 1.696521 0.497011
v -0.451963 1.696521 0.467634
v -2.960066 1.696521 -0.478653
v -2.972234 1.696521 -0.449276
v -2.960066 1.725898 -0.449276
v -2.930689 1.738066 -0.449276
v -2.930689 1.725898 -0.478653
v -2.930689 1.696521 -0.490821
v -0.464131 1.696521 -0.478653
v -0.493508 1.696521 -0.490821
v -0.493508 1.725898 -0.478653
v -0.493508 1.738066 -0.449276
v -0.464131 1.725898 -0.449276
v -0.451963 1.696521 -0.449276
v -2.960066 1.584038 -0.449276
v -2.972234 1.613414 -0.449276
v -2.960066 1.613414 -0.478653
v -2.930689 1.613414 -0.490821
v -2.930689 1.584038 -0.478653
v -2.930689 1.571869 -0.449276
v -0.464131 1.584038 -0.449276
v -0.493508 1.571869 -0.449276
v -0.493508 1.584038 -0.478653
v -0.493508 1.613414 -0.490821
v -0.464131 1.613414 -0.478653
v -0.451963 1.613414 -0.449276
v -2.954667 1.589437 0.491611
v -0.469530 1.589437 0.491611
v -2.954667 1.720499 0.491611
v -0.469530 1.720499 0.491611
v -2.954667 1.720499 -0.473254
v -0.469530 1.720499 -0.473254
v -2.954667 1.589437 -0.473254
v -0.469530 1.589437 -0.473254
vt 0.292772 0.007515
vt 0.296699 0.007669
vt 0.295793 0.121114
vt 0.291857 0.121201
vt 0.296614 0.003745
vt 0.293446 0.004344
vt 0.306980 0.007747
vt 0.306074 0.121192
vt 0.295642 0.124997
vt 0.292482 0.124366
vt 0.307131 0.003864
vt 0.310916 0.007660
vt 0.310001 0.121346
vt 0.306159 0.125116
vt 0.310291 0.004495
vt 0.309327 0.124517
vt 0.294110 0.242381
vt 0.290173 0.242469
vt 0.291037 0.128783
vt 0.294964 0.128935
vt 0.293960 0.246263
vt 0.290800 0.245634
vt 0.294878 0.125011
vt 0.291710 0.125611
vt 0.305245 0.129008
vt 0.304391 0.242453
vt 0.304477 0.246377
vt 0.305395 0.125125
vt 0.308318 0.242606
vt 0.309182 0.128920
vt 0.307645 0.245777
vt 0.308555 0.125754
vt 0.118072 0.310672
vt 0.118135 0.314607
vt 0.004431 0.313252
vt 0.004586 0.309327
vt 0.122002 0.310826
vt 0.121318 0.313996
vt 0.000651 0.309385
vt 0.001262 0.312569
vt 0.008169 0.007681
vt 0.121655 0.009026
vt 0.125591 0.008967
vt 0.004239 0.007527
vt 0.121810 0.005100
vt 0.008106 0.003746
vt 0.124979 0.005783
vt 0.004923 0.004357
vt 0.128994 0.313252
vt 0.129148 0.309327
vt 0.242634 0.310668
vt 0.242698 0.314603
vt 0.125213 0.309385
vt 0.125824 0.312570
vt 0.132722 0.007680
vt 0.246208 0.009022
vt 0.246564 0.310822
vt 0.245881 0.313992
vt 0.128792 0.007527
vt 0.132659 0.003745
vt 0.246363 0.005096
vt 0.250144 0.008964
vt 0.129476 0.004357
vt 0.249532 0.005779
vt 0.273910 0.309288
vt 0.269974 0.309373
vt 0.272197 0.007521
vt 0.276128 0.007668
vt 0.273762 0.313170
vt 0.270602 0.312540
vt 0.276042 0.003745
vt 0.272872 0.004347
vt 0.286414 0.007740
vt 0.284196 0.309359
vt 0.284282 0.313282
vt 0.286562 0.003858
vt 0.288127 0.309507
vt 0.290350 0.007654
vt 0.287451 0.312681
vt 0.289722 0.004487
vt 0.253560 0.313168
vt 0.253711 0.309286
vt 0.263996 0.309366
vt 0.264080 0.313289
vt 0.249775 0.309368
vt 0.250400 0.312536
vt 0.256174 0.007669
vt 0.266460 0.007748
vt 0.267927 0.309517
vt 0.267249 0.312690
vt 0.252243 0.007518
vt 0.256091 0.003745
vt 0.266611 0.003866
vt 0.270396 0.007666
vt 0.252921 0.004344
vt 0.269770 0.004498
vn -0.004880 -0.999906 0.012806
vn -0.381780 -0.924219 0.008004
vn -0.381779 -0.924219 -0.008004
vn -0.004880 -0.999906 -0.012806
vn -0.924218 -0.381780 0.008004
vn -0.994231 -0.106626 0.011655
vn -0.994231 -0.106626 -0.011655
vn -0.924218 -0.381780 -0.008004
vn -0.004466 -0.107198 0.994228
vn -0.003056 -0.382341 0.924016
vn 0.003056 -0.382341 0.924016
vn 0.004466 -0.107198 0.994228
vn -0.003056 -0.924015 0.382345
vn 0.004880 -0.999906 0.012806
vn 0.003056 -0.924015 0.382345
vn -0.924786 -0.071418 0.373726
vn -0.924785 0.071419 0.373726
vn -0.994231 0.106626 0.011655
vn -0.373722 -0.071421 0.924787
vn -0.004466 0.107198 0.994228
vn -0.373722 0.071421 0.924787
vn 0.994231 -0.106625 0.011655
vn 0.924219 -0.381780 0.008004
vn 0.924219 -0.381780 -0.008004
vn 0.994231 -0.106625 -0.011655
vn 0.381782 -0.924218 0.008004
vn 0.004880 -0.999906 -0.012806
vn 0.381782 -0.924218 -0.008004
vn 0.373722 -0.071421 0.924787
vn 0.373723 0.071421 0.924787
vn 0.004466 0.107198 0.994228
vn 0.924786 -0.071421 0.373724
vn 0.994231 0.106625 0.011655
vn 0.924786 0.071421 0.373723
vn -0.924218 0.381780 0.008004
vn -0.924218 0.381780 -0.008004
vn -0.994231 0.106626 -0.011655
vn -0.381779 0.924219 0.008004
vn -0.004880 0.999906 0.012806
vn -0.004880 0.999906 -0.012806
vn -0.381779 0.924219 -0.008004
vn -0.003056 0.924016 0.382342
vn 0.003056 0.924016 0.382342
vn 0.004880 0.999906 0.012806
vn -0.003056 0.382339 0.924017
vn 0.003056 0.382340 0.924017
vn 0.381782 0.924218 0.008004
vn 0.381782 0.924218 -0.008004
vn 0.004880 0.999906 -0.012806
vn 0.924219 0.381780 0.008004
vn 0.994231 0.106625 -0.011655
vn 0.924219 0.381780 -0.008004
vn -0.924785 0.071418 -0.373726
vn -0.924786 -0.071419 -0.373726
vn -0.373724 0.071422 -0.924786
vn -0.004466 0.107198 -0.994228
vn -0.004466 -0.107198 -0.994228
vn -0.373723 -0.071422 -0.924786
vn -0.003056 0.382340 -0.924017
vn 0.003056 0.382340 -0.924017
vn 0.004466 0.107198 -0.994228
vn -0.003056 0.924016 -0.382342
vn 0.003056 0.924016 -0.382342
vn 0.373724 0.071421 -0.924786
vn 0.373724 -0.071421 -0.924786
vn 0.004466 -0.107198 -0.994228
vn 0.924787 0.071421 -0.373723
vn 0.924786 -0.071421 -0.373724
vn -0.003056 -0.924015 -0.382345
vn 0.003056 -0.924015 -0.382345
vn -0.003056 -0.382341 -0.924016
vn 0.003056 -0.382341 -0.924016
vn -0.887923 -0.325258 0.325270
vn -0.325268 -0.887920 0.325269
vn -0.325267 -0.325266 0.887921
vn 0.325270 -0.887918 0.325269
vn 0.887918 -0.325269 0.325270
vn 0.325266 -0.325269 0.887920
vn -0.325268 0.887922 0.325262
vn -0.887921 0.325260 0.325273
vn -0.325266 0.325266 0.887921
vn 0.887919 0.325269 0.325268
vn 0.325270 0.887918 0.325270
vn 0.325268 0.325270 0.887919
vn -0.325268 0.325270 -0.887919
vn -0.887922 0.325257 -0.325273
vn -0.325269 0.887921 -0.325263
vn 0.887919 0.325269 -0.325268
vn 0.325270 0.325270 -0.887918
vn 0.325271 0.887918 -0.325269
vn -0.325268 -0.887920 -0.325266
vn -0.887922 -0.325260 -0.325269
vn -0.325268 -0.325270 -0.887919
vn 0.887919 -0.325269 -0.325270
vn 0.325271 -0.887918 -0.325270
vn 0.325268 -0.325268 -0.887920
s 1
g textureEditorIsolateSelectSet TubPlate
usemtl lambert9SG
f 534/772/1160 533/773/1161 569/774/1162 574/775/1163
s 2
f 533/740/1164 538/741/1165 570/742/1166 569/743/1167
s 3
f 536/804/1168 535/805/1169 543/806/1170 542/807/1171
s 1
f 535/776/1172 534/772/1160 544/781/1173 543/782/1174
s 2
f 538/741/1165 537/744/1175 547/750/1176 546/746/1177
s 3
f 537/808/1178 536/804/1168 548/813/1179 547/814/1180
s 4
f 540/756/1181 539/757/1182 575/758/1183 580/759/1184
s 1
f 539/784/1185 544/781/1173 576/780/1186 575/785/1187
s 3
f 542/807/1171 541/810/1188 555/815/1189 554/812/1190
s 4
f 541/760/1191 540/756/1181 556/765/1192 555/766/1193
s 2
f 546/746/1177 545/751/1194 559/752/1195 558/747/1196
s 5
f 545/788/1197 550/789/1198 560/790/1199 559/791/1200
f 550/789/1198 549/792/1201 553/798/1202 552/794/1203
s 3
f 549/816/1204 548/813/1179 554/812/1190 553/817/1205
s 5
f 552/794/1203 551/799/1206 567/800/1207 566/795/1208
s 4
f 551/768/1209 556/765/1192 568/764/1210 567/769/1211
s 2
f 558/747/1196 557/753/1212 571/748/1213 570/742/1166
s 6
f 557/820/1214 562/821/1215 572/822/1216 571/823/1217
f 562/821/1215 561/824/1218 565/830/1219 564/826/1220
s 5
f 561/796/1221 560/790/1199 566/795/1208 565/801/1222
s 6
f 564/826/1220 563/831/1223 579/832/1224 578/827/1225
s 4
f 563/767/1226 568/764/1210 580/759/1184 579/762/1227
s 1
f 574/775/1163 573/778/1228 577/783/1229 576/780/1186
s 6
f 573/828/1230 572/822/1216 578/827/1225 577/833/1231
s 3
f 536/804/1168 542/807/1171 554/812/1190 548/813/1179
s 5
f 550/789/1198 552/794/1203 566/795/1208 560/790/1199
s 6
f 562/821/1215 564/826/1220 578/827/1225 572/822/1216
s 1
f 574/775/1163 576/780/1186 544/781/1173 534/772/1160
s 4
f 540/756/1181 580/759/1184 568/764/1210 556/765/1192
s 2
f 570/742/1166 538/741/1165 546/746/1177 558/747/1196
f 537/744/1175 538/741/1165 533/740/1164 581/745/1232
s 1
f 533/773/1161 534/772/1160 535/776/1172 581/777/1233
s 3
f 535/805/1169 536/804/1168 537/808/1178 581/809/1234
s 1
f 543/782/1174 544/781/1173 539/784/1185 582/786/1235
s 4
f 539/757/1182 540/756/1181 541/760/1191 582/761/1236
s 3
f 541/810/1188 542/807/1171 543/806/1170 582/811/1237
s 5
f 549/792/1201 550/789/1198 545/788/1197 583/793/1238
s 2
f 545/751/1194 546/746/1177 547/750/1176 583/754/1239
s 3
f 547/814/1180 548/813/1179 549/816/1204 583/818/1240
s 4
f 555/766/1193 556/765/1192 551/768/1209 584/770/1241
s 5
f 551/799/1206 552/794/1203 553/798/1202 584/802/1242
s 3
f 553/817/1205 554/812/1190 555/815/1189 584/819/1243
s 6
f 561/824/1218 562/821/1215 557/820/1214 585/825/1244
s 2
f 557/753/1212 558/747/1196 559/752/1195 585/755/1245
s 5
f 559/791/1200 560/790/1199 561/796/1221 585/797/1246
s 4
f 567/769/1211 568/764/1210 563/767/1226 586/771/1247
s 6
f 563/831/1223 564/826/1220 565/830/1219 586/834/1248
s 5
f 565/801/1222 566/795/1208 567/800/1207 586/803/1249
s 1
f 573/778/1228 574/775/1163 569/774/1162 587/779/1250
s 2
f 569/743/1167 570/742/1166 571/748/1213 587/749/1251
s 6
f 571/823/1217 572/822/1216 573/828/1230 587/829/1252
s 4
f 579/762/1227 580/759/1184 575/758/1183 588/763/1253
s 1
f 575/785/1187 576/780/1186 577/783/1229 588/787/1254
s 6
f 577/833/1231 578/827/1225 579/832/1224 588/835/1255
