# This file uses centimeters as units for non-parametric coordinates.

mtllib try.mtl
g default
v 2.326790 0.905047 -1.535418
v 2.479926 0.946267 -1.535418
v 2.592035 1.058867 -1.535418
v 2.633079 1.212681 -1.535418
v 2.652251 1.192145 -1.584754
v 2.611119 1.038684 -1.584754
v 2.498742 0.926343 -1.584754
v 2.345230 0.885224 -1.584754
v 0.563906 0.904948 -1.535418
v 0.410754 0.946161 -1.535418
v 0.298643 1.058772 -1.535418
v 0.257618 1.212601 -1.535418
v 0.545538 0.885224 -1.584754
v 0.392028 0.926343 -1.584754
v 0.279651 1.038684 -1.584754
v 0.238518 1.192145 -1.584754
v 2.633152 1.969586 -1.535418
v 2.592127 2.123411 -1.535418
v 2.480018 2.236017 -1.535418
v 2.326873 2.277229 -1.535418
v 2.345230 2.296953 -1.584754
v 2.498742 2.255833 -1.584754
v 2.611119 2.143492 -1.584754
v 2.652251 1.990031 -1.584754
v 0.257692 1.969489 -1.535418
v 0.298738 2.123306 -1.535418
v 0.410849 2.235909 -1.535418
v 0.563991 2.277130 -1.535418
v 0.238518 1.990031 -1.584754
v 0.279651 2.143492 -1.584754
v 0.392028 2.255833 -1.584754
v 0.545538 2.296953 -1.584754
v 0.607689 2.252778 -2.924593
v 0.453842 2.211748 -2.924593
v 0.341219 2.099654 -2.924593
v 0.299996 1.946532 -2.924593
v 0.656573 2.204108 -2.944446
v 0.348921 1.897839 -2.944446
v 0.390139 2.050974 -2.944446
v 0.502747 2.163076 -2.944446
v 2.541737 1.897740 -2.944446
v 2.234185 2.204108 -2.944446
v 2.387994 2.163059 -2.944446
v 2.500570 2.050916 -2.944446
v 2.283078 2.252778 -2.924593
v 2.436918 2.211747 -2.924593
v 2.549535 2.099648 -2.924593
v 2.590744 1.946522 -2.924593
v 0.585711 2.273457 -2.876152
v 0.432201 2.232337 -2.876152
v 0.319824 2.119996 -2.876152
v 0.278691 1.966534 -2.876152
v 2.612080 1.966534 -2.876152
v 2.570947 2.119996 -2.876152
v 2.458570 2.232337 -2.876152
v 2.305059 2.273457 -2.876152
v 2.233824 0.978447 -2.944446
v 2.541518 1.284676 -2.944446
v 2.500259 1.131571 -2.944446
v 2.387644 1.019491 -2.944446
v 2.590674 1.235736 -2.924594
v 2.549443 1.082626 -2.924594
v 2.436821 0.970541 -2.924594
v 2.282980 0.929510 -2.924594
v 2.305059 0.908720 -2.876152
v 2.458570 0.949839 -2.876152
v 2.570947 1.062181 -2.876152
v 2.612080 1.215642 -2.876152
v 0.299996 1.235654 -2.924593
v 0.341221 1.082530 -2.924593
v 0.453848 0.970439 -2.924593
v 0.607698 0.929417 -2.924593
v 0.278691 1.215642 -2.876152
v 0.319824 1.062181 -2.876152
v 0.432201 0.949839 -2.876152
v 0.585711 0.908720 -2.876152
v 0.656631 0.978130 -2.944446
v 0.502782 1.019134 -2.944446
v 0.390149 1.131218 -2.944446
v 0.348921 1.284341 -2.944446
v 2.431676 1.305897 -1.549532
v 2.431676 1.305897 -1.549532
v 2.299025 1.075199 -1.549532
v 2.396108 1.172703 -1.549532
v 2.396108 1.172703 -1.549532
v 0.458890 1.305695 -1.549532
v 0.458890 1.305695 -1.549532
v 0.494386 1.172443 -1.549532
v 0.494386 1.172443 -1.549532
v 0.591453 1.074895 -1.549532
v 0.591453 1.074895 -1.549532
v 0.724062 1.039207 -1.549532
v 2.166705 2.142971 -1.549532
v 2.166705 2.142971 -1.549532
v 2.431878 1.876483 -1.549532
v 2.431878 1.876483 -1.549532
v 2.396382 2.009735 -1.549532
v 2.396382 2.009735 -1.549532
v 2.299315 2.107282 -1.549532
v 2.299315 2.107282 -1.549532
v 0.724345 2.142684 -1.549532
v 0.724345 2.142684 -1.549532
v 0.591742 2.106977 -1.549532
v 0.591742 2.106977 -1.549532
v 0.494659 2.009471 -1.549532
v 0.494659 2.009471 -1.549532
v 0.459093 1.876275 -1.549532
v 0.459093 1.876275 -1.549532
vt 0.197764 0.402779
vt 0.197545 0.383141
vt 0.203970 0.381815
vt 0.204014 0.400513
vt 0.196124 0.363946
vt 0.203136 0.362986
vt 0.202293 0.552367
vt 0.201442 0.532577
vt 0.208009 0.531782
vt 0.208519 0.550264
vt 0.200644 0.512742
vt 0.207143 0.513295
vt 0.199754 0.492879
vt 0.206130 0.494757
vt 0.431679 0.377583
vt 0.430668 0.396366
vt 0.411185 0.378551
vt 0.412061 0.362286
vt 0.411192 0.378343
vt 0.402318 0.394970
vt 0.382553 0.376682
vt 0.390237 0.362284
vt 0.365143 0.487418
vt 0.365727 0.507221
vt 0.359180 0.508518
vt 0.358889 0.489654
vt 0.367627 0.526492
vt 0.360840 0.527400
vt 0.367458 0.529219
vt 0.367768 0.548571
vt 0.361398 0.546407
vt 0.364749 0.363558
vt 0.363478 0.382697
vt 0.356878 0.381629
vt 0.357933 0.362916
vt 0.363632 0.402443
vt 0.357274 0.400426
vt 0.377259 0.748374
vt 0.371132 0.751165
vt 0.217626 0.762540
vt 0.174053 0.414466
vt 0.175589 0.482352
vt 0.211214 0.760716
vt 0.194361 0.742294
vt 0.187108 0.571818
vt 0.171812 0.407357
vt 0.171641 0.390937
vt 0.171200 0.378576
vt 0.169665 0.362290
vt 0.182160 0.566920
vt 0.181839 0.550626
vt 0.175565 0.537550
vt 0.174952 0.521147
vt 0.174442 0.506576
vt 0.173505 0.490157
vt 0.211507 0.779813
vt 0.218147 0.781346
vt 0.378880 0.767519
vt 0.372472 0.769996
vn 0.927827 -0.029149 0.371869
vn 0.773393 -0.423501 0.471709
vn 0.865410 -0.500800 -0.016246
vn 0.998803 -0.045467 -0.018036
vn 0.427644 -0.769413 0.474472
vn 0.502942 -0.864241 -0.011696
vn 0.014266 -0.926218 0.376718
vn 0.022449 -0.999733 -0.005490
vn 0.062304 0.016607 0.997919
vn 0.062304 0.016607 0.997919
vn 0.062304 0.016607 0.997919
vn 0.062304 0.016607 0.997919
vn 0.045603 0.045391 0.997928
vn 0.045603 0.045391 0.997928
vn 0.045603 0.045391 0.997928
vn 0.045603 0.045391 0.997928
vn 0.021344 0.079311 0.996621
vn 0.021344 0.079311 0.996621
vn 0.021344 0.079311 0.996621
vn 0.021344 0.079311 0.996621
vn 0.014231 0.926269 0.376594
vn 0.428158 0.770277 0.472603
vn 0.502940 0.864241 -0.011784
vn 0.022447 0.999733 -0.005489
vn 0.774189 0.423971 0.469979
vn 0.865412 0.500796 -0.016329
vn 0.927907 0.029103 0.371674
vn 0.998803 0.045463 -0.018043
vn 0.021321 -0.079192 0.996631
vn 0.021321 -0.079192 0.996631
vn 0.021321 -0.079192 0.996631
vn 0.021321 -0.079192 0.996631
vn 0.045543 -0.045345 0.997933
vn 0.045543 -0.045345 0.997933
vn 0.045543 -0.045345 0.997933
vn 0.045543 -0.045345 0.997933
vn 0.062240 -0.016613 0.997923
vn 0.062240 -0.016613 0.997923
vn 0.062240 -0.016613 0.997923
vn 0.062240 -0.016613 0.997923
vn -0.346367 0.034199 -0.937476
vn -0.236560 0.153547 -0.959407
vn -0.254046 0.135261 -0.957687
vn -0.367772 0.009580 -0.929867
vn -0.153169 0.237344 -0.959274
vn -0.134389 0.255473 -0.957431
vn -0.018594 0.361546 -0.932169
vn -0.004157 0.374097 -0.927380
vn 0.909702 0.030680 -0.414126
vn 0.753000 0.417289 -0.508783
vn 0.864305 0.500009 -0.054480
vn 0.998037 0.044192 -0.044376
vn 0.413206 0.757161 -0.505933
vn 0.497558 0.865998 -0.049833
vn 0.013732 0.917392 -0.397748
vn 0.021125 0.999317 -0.030335
vn 0.013733 -0.916916 -0.398844
vn 0.412629 -0.756227 -0.507798
vn 0.497557 -0.865994 -0.049923
vn 0.021126 -0.999316 -0.030367
vn 0.752155 -0.416819 -0.510416
vn 0.864299 -0.500011 -0.054561
vn 0.909611 -0.030730 -0.414323
vn 0.998037 -0.044196 -0.044385
vn -0.018513 -0.360726 -0.932488
vn -0.153080 -0.237259 -0.959310
vn -0.134286 -0.255381 -0.957470
vn -0.004099 -0.373114 -0.927777
vn -0.236492 -0.153531 -0.959427
vn -0.253983 -0.135258 -0.957705
vn -0.346358 -0.034201 -0.937479
vn -0.367768 -0.009583 -0.929868
vn 0.018599 0.361526 -0.932176
vn 0.004158 0.374093 -0.927382
vn -0.013732 0.917393 -0.397746
vn -0.021125 0.999317 -0.030336
vn -0.022450 0.999733 -0.005492
vn -0.021124 -0.999316 -0.030367
vn -0.022447 -0.999733 -0.005490
vn -0.998038 -0.044194 -0.044345
vn -0.998803 -0.045463 -0.018045
vn -0.998803 0.045468 -0.018037
vn -0.998038 0.044194 -0.044346
vn -0.014228 -0.926264 0.376607
vn -0.069929 0.000014 0.997552
vn -0.069929 0.000014 0.997552
vn -0.069929 0.000014 0.997552
vn -0.069929 0.000014 0.997552
vn -0.927899 -0.029097 0.371694
vn -0.927818 0.029147 0.371892
vn 0.069930 -0.000014 0.997552
vn 0.069930 -0.000014 0.997552
vn 0.069930 -0.000014 0.997552
vn 0.069930 -0.000014 0.997552
vn -0.014262 0.926222 0.376708
vn 0.000013 -0.104478 0.994527
vn 0.000013 -0.104478 0.994527
vn 0.000013 -0.104478 0.994527
vn 0.000013 -0.104478 0.994527
vn 0.366835 0.009473 -0.930238
vn 0.345643 0.034069 -0.937747
vn 0.345112 -0.034167 -0.937939
vn 0.366676 -0.009632 -0.930299
vn -0.910130 0.030737 -0.413180
vn -0.910128 -0.030733 -0.413185
vn -0.013700 -0.916962 -0.398740
vn 0.004191 -0.373029 -0.927810
vn 0.018584 -0.360356 -0.932630
vn -0.062240 0.016613 0.997923
vn -0.062240 0.016613 0.997923
vn -0.062240 0.016613 0.997923
vn -0.062240 0.016613 0.997923
vn -0.045541 0.045344 0.997933
vn -0.045541 0.045344 0.997933
vn -0.045541 0.045344 0.997933
vn -0.045541 0.045344 0.997933
vn -0.774175 -0.423949 0.470022
vn -0.865412 -0.500796 -0.016327
vn -0.428146 -0.770256 0.472650
vn -0.502942 -0.864240 -0.011782
vn -0.021343 -0.079309 0.996622
vn -0.021343 -0.079309 0.996622
vn -0.021343 -0.079309 0.996622
vn -0.021343 -0.079309 0.996622
vn -0.045602 -0.045390 0.997928
vn -0.045602 -0.045390 0.997928
vn -0.045602 -0.045390 0.997928
vn -0.045602 -0.045390 0.997928
vn -0.062303 -0.016607 0.997919
vn -0.062303 -0.016607 0.997919
vn -0.062303 -0.016607 0.997919
vn -0.062303 -0.016607 0.997919
vn -0.427625 0.769395 0.474518
vn -0.502944 0.864240 -0.011694
vn -0.773367 0.423486 0.471766
vn -0.865410 0.500801 -0.016244
vn -0.753121 0.417382 -0.508529
vn -0.864305 0.500010 -0.054469
vn -0.413231 0.757208 -0.505842
vn -0.497559 0.865998 -0.049828
vn 0.253868 0.135071 -0.957761
vn 0.236397 0.153378 -0.959475
vn 0.134373 0.255341 -0.957468
vn 0.153132 0.237203 -0.959315
vn 0.133702 -0.254177 -0.957872
vn 0.152385 -0.236136 -0.959697
vn 0.252782 -0.134638 -0.958109
vn 0.235364 -0.152820 -0.959818
vn -0.413167 -0.757125 -0.506019
vn -0.497558 -0.865998 -0.049836
vn -0.753079 -0.417358 -0.508611
vn -0.864304 -0.500011 -0.054474
s 1
g textureEditorIsolateSelectSet polySurface3 Sink1
usemtl lambert3SG
f 4/1/1 3/2/2 6/3/3 5/4/4
f 3/2/2 2/5/5 7/6/6 6/3/3
g polySurface3 Sink1
f 2//5 1//7 8//8 7//6
s off
f 12//9 11//10 89//11 86//12
f 11//13 10//14 91//15 88//16
f 10//17 9//18 92//19 90//20
s 1
g textureEditorIsolateSelectSet polySurface3 Sink1
f 20/7/21 19/8/22 22/9/23 21/10/24
f 19/8/22 18/11/25 23/12/26 22/9/23
f 18/11/25 17/13/27 24/14/28 23/12/26
s off
f 28/15/29 27/16/30 104/17/31 101/18/32
f 27/19/33 26/20/34 106/21/35 103/22/36
g polySurface3 Sink1
f 26//37 25//38 107//39 105//40
s 3
f 36//41 35//42 39//43 38//44
f 35//42 34//45 40//46 39//43
f 34//45 33//47 37//48 40//46
s 1
g textureEditorIsolateSelectSet polySurface3 Sink1
f 48/23/49 47/24/50 54/25/51 53/26/52
f 47/24/50 46/27/53 55/28/54 54/25/51
f 46/29/53 45/30/55 56/31/56 55/28/54
g polySurface3 Sink1
f 64//57 63//58 66//59 65//60
g textureEditorIsolateSelectSet polySurface3 Sink1
f 63/32/58 62/33/61 67/34/62 66/35/59
f 62/33/61 61/36/63 68/37/64 67/34/62
s 3
g polySurface3 Sink1
f 72//65 71//66 78//67 77//68
f 71//66 70//69 79//70 78//67
f 70//69 69//71 80//72 79//70
f 37//48 33//47 45//73 42//74
s 1
g textureEditorIsolateSelectSet polySurface3 Sink1
f 33/38/75 49/39/76 56/31/56 45/30/55
f 32/40/77 21/10/24 56/31/56 49/39/76
g polySurface3 Sink1
f 76//78 65//60 8//8 13//79
g textureEditorIsolateSelectSet polySurface3 Sink1
f 5/4/4 68/37/64 53/26/52 24/14/28
g polySurface3 Sink1
f 73//80 16//81 29//82 52//83
f 9//84 13//79 8//8 1//7
s off
g textureEditorIsolateSelectSet polySurface3 Sink1
f 82/41/85 4/1/86 17/13/87 96/42/88
s 1
f 4/1/1 5/4/4 24/14/28 17/13/27
g polySurface3 Sink1
f 16//81 12//89 25//90 29//82
s off
f 12//91 87//92 108//93 25//94
s 1
g textureEditorIsolateSelectSet polySurface3 Sink1
f 32/40/77 28/43/95 20/7/21 21/10/24
s off
f 28/43/96 102/44/97 94/45/98 20/7/99
s 3
g polySurface3 Sink1
f 41//100 48//101 61//102 58//103
s 1
g textureEditorIsolateSelectSet polySurface3 Sink1
f 48/23/49 53/26/52 68/37/64 61/36/63
g polySurface3 Sink1
f 52//83 36//104 69//105 73//80
s 3
f 36//41 38//44 80//72 69//71
s 1
f 76//78 72//106 64//57 65//60
s 3
f 72//65 77//68 57//107 64//108
s off
g textureEditorIsolateSelectSet polySurface3 Sink1
f 81/46/109 84/47/110 3/2/111 4/1/112
f 85/48/113 83/49/114 2/5/115 3/2/116
s 1
g polySurface3 Sink1
f 11//117 12//89 16//81 15//118
f 9//84 10//119 14//120 13//79
f 10//119 11//117 15//118 14//120
s off
g textureEditorIsolateSelectSet polySurface3 Sink1
f 93/50/121 99/51/122 19/8/123 20/7/124
f 100/52/125 97/53/126 18/11/127 19/8/128
f 98/54/129 95/55/130 17/13/131 18/11/132
s 1
f 27/56/133 28/43/95 32/40/77 31/57/134
g polySurface3 Sink1
f 25//90 26//135 30//136 29//82
f 26//135 27//133 31//134 30//136
f 35//137 36//104 52//83 51//138
g textureEditorIsolateSelectSet polySurface3 Sink1
f 33/38/75 34/58/139 50/59/140 49/39/76
g polySurface3 Sink1
f 34//139 35//137 51//138 50//140
s 3
f 41//100 44//141 47//142 48//101
f 44//141 43//143 46//144 47//142
f 43//143 42//74 45//73 46//144
s 1
f 29//82 30//136 51//138 52//83
f 30//136 31//134 50//140 51//138
g textureEditorIsolateSelectSet polySurface3 Sink1
f 31/57/134 32/40/77 49/39/76 50/59/140
f 21/10/24 22/9/23 55/28/54 56/31/56
f 22/9/23 23/12/26 54/25/51 55/28/54
f 23/12/26 24/14/28 53/26/52 54/25/51
s 3
g polySurface3 Sink1
f 57//107 60//145 63//146 64//108
f 60//145 59//147 62//148 63//146
f 59//147 58//103 61//102 62//148
s 1
g textureEditorIsolateSelectSet polySurface3 Sink1
f 5/4/4 6/3/3 67/34/62 68/37/64
f 6/3/3 7/6/6 66/35/59 67/34/62
g polySurface3 Sink1
f 7//6 8//8 65//60 66//59
f 71//149 72//106 76//78 75//150
f 69//105 70//151 74//152 73//80
f 70//151 71//149 75//150 74//152
f 13//79 14//120 75//150 76//78
f 14//120 15//118 74//152 75//150
f 15//118 16//81 73//80 74//152
